<svg xmlns="http://www.w3.org/2000/svg" viewBox="0 0 500 500"><g id="freepik--background-simple--inject-6"><path d="M462.15,366.65c27.34-54.67,29.19-127.51,10.31-185.9C456.2,130.47,420,92.12,378.26,69.28,329.79,42.79,272,34.9,220,51.62c-13.69,4.4-27,8.43-39.91,15.66-52.88,29.62-42.68,102.61-61.23,128-15.61,21.36-45.46,15.06-64.28,31.43C3.81,270.88,3.68,382.53,62.27,417.43,124.43,454.45,394.42,502.05,462.15,366.65Z" style="fill:#6F65E8"></path><path d="M462.15,366.65c27.34-54.67,29.19-127.51,10.31-185.9C456.2,130.47,420,92.12,378.26,69.28,329.79,42.79,272,34.9,220,51.62c-13.69,4.4-27,8.43-39.91,15.66-52.88,29.62-42.68,102.61-61.23,128-15.61,21.36-45.46,15.06-64.28,31.43C3.81,270.88,3.68,382.53,62.27,417.43,124.43,454.45,394.42,502.05,462.15,366.65Z" style="fill:#fff;opacity:0.8"></path></g><g id="freepik--Floor--inject-6"><path d="M481.83,478.07H224.21a.5.5,0,1,1,0-1H481.83a.5.5,0,0,1,0,1Z" style="fill:#263238"></path><path d="M216.17,478.07H32.23a.5.5,0,1,1,0-1H216.17a.5.5,0,1,1,0,1Z" style="fill:#263238"></path></g><g id="freepik--Plant--inject-6"><path d="M434.81,439.45c-1.54.46-5.09-.07-5.09-.07s1.06-2.24,1.14-2.37c1-1.54,3.8-3.93,5.77-3.4a2.41,2.41,0,0,1,1.55,3.25A5,5,0,0,1,434.81,439.45Z" style="fill:#263238"></path><path d="M401.65,438s-.35-2.45-.35-2.61c0-1.83,1-5.37,2.93-6a2.41,2.41,0,0,1,3.09,1.85,5.1,5.1,0,0,1-1.38,4C404.9,436.44,401.65,438,401.65,438Z" style="fill:#263238"></path><path d="M394.05,431.37a13.73,13.73,0,0,0,4.23.92c.31.43.64.89,1,1.41.61.92,1.29,2,2,3.15.18.31.36.66.54,1-.42-.5-1-1.17-1.07-1.23-1.18-1.09-4.1-2.5-5.66-1.61a2.12,2.12,0,0,0-.6,3.11,4.44,4.44,0,0,0,3.45,1.45,14.28,14.28,0,0,0,4.2-1.14c.38.74.76,1.51,1.11,2.34a27.65,27.65,0,0,1,1.56,4.63l-.09,0c-.34-.5-1.06-1.55-1.13-1.63-1.05-1.21-3.8-2.93-5.45-2.22a2.12,2.12,0,0,0-.93,3,4.43,4.43,0,0,0,3.26,1.83,15.27,15.27,0,0,0,4.4-.71,37.13,37.13,0,0,1,.69,4.81c.1,1.2.15,2.41.19,3.63-.22-.36-1.17-1.73-1.24-1.82-1.06-1.22-3.8-2.94-5.46-2.23a2.12,2.12,0,0,0-.93,3,4.45,4.45,0,0,0,3.26,1.83,14.85,14.85,0,0,0,4.38-.7c0,.56,0,1.11,0,1.67,0,1.81.08,3.63.17,5.42,0,.62.09,1.23.14,1.85-.35-.53-1-1.49-1.07-1.56-1.06-1.22-3.8-2.94-5.46-2.23a2.12,2.12,0,0,0-.93,3,4.41,4.41,0,0,0,3.26,1.83,14.3,14.3,0,0,0,4.23-.65c.09,1,.21,2,.37,3,.08.42.13.86.23,1.26l.27,1.22c.21.82.41,1.58.62,2.34l.33,1.12c-.27-.6-.73-1.53-.78-1.61-.85-1.35-3.31-3.47-5-3a2.13,2.13,0,0,0-1.38,2.85,4.45,4.45,0,0,0,2.95,2.3,14.6,14.6,0,0,0,4.41,0c.27.91.54,1.79.81,2.62.22.67.44,1.3.65,1.9h1.18c-.27-.7-.54-1.45-.82-2.25s-.52-1.52-.79-2.33a15.23,15.23,0,0,0,3.74-2.05,20.85,20.85,0,0,0,2.37,1.33c-.28.91-.53,1.8-.76,2.63s-.49,1.84-.7,2.67h1.16c.17-.75.35-1.54.57-2.4s.4-1.55.63-2.37a14.73,14.73,0,0,0,4.39.33,4.47,4.47,0,0,0,3.1-2.09,2.13,2.13,0,0,0-1.18-2.94c-1.7-.57-4.3,1.37-5.25,2.67-.06.08-.67,1.14-1,1.69.14-.5.28-1,.43-1.5.22-.74.47-1.52.71-2.27l.42-1.17c.13-.4.31-.77.46-1.16.24-.56.52-1.13.79-1.7a13.55,13.55,0,0,0,4.09.91,4.44,4.44,0,0,0,3.38-1.59,2.12,2.12,0,0,0-.72-3.08c-1.6-.82-4.46.7-5.6,1.84l-.5.62c.29-.55.57-1.1.87-1.65.87-1.55,1.81-3.1,2.74-4.66.19-.33.38-.66.58-1a14.19,14.19,0,0,0,4.19.95,4.44,4.44,0,0,0,3.39-1.59,2.13,2.13,0,0,0-.73-3.08c-1.6-.82-4.46.7-5.59,1.84l-.58.71c.49-.85,1-1.71,1.43-2.58a37.86,37.86,0,0,0,2-4.59,14.51,14.51,0,0,0,4.32,1,4.44,4.44,0,0,0,3.38-1.59,2.13,2.13,0,0,0-.72-3.08c-1.6-.82-4.46.7-5.6,1.84-.08.08-1,1.23-1.31,1.65a.08.08,0,0,0,0-.05,27.58,27.58,0,0,0,1.17-4.79,37.89,37.89,0,0,0,.42-4.39c.07-1.36,0-2.62,0-3.72,0-.6-.05-1.15-.08-1.66l0,0s.78-2,.81-2.16c.38-1.56.19-4.8-1.34-5.73a2.12,2.12,0,0,0-3,1,4.44,4.44,0,0,0,.4,3.72,14,14,0,0,0,3,3.1c0,.53.05,1.1.06,1.73,0,1.11,0,2.35-.1,3.71,0,.36-.06.75-.1,1.12-.07-.64-.19-1.53-.21-1.61-.38-1.56-2-4.35-3.83-4.47a2.13,2.13,0,0,0-2.22,2.26,4.49,4.49,0,0,0,2.07,3.12,14.43,14.43,0,0,0,4.14,1.36c-.09.83-.2,1.69-.36,2.57a27.37,27.37,0,0,1-1.26,4.72l-.1,0c0-.6,0-1.87,0-2-.21-1.59-1.55-4.54-3.32-4.86a2.12,2.12,0,0,0-2.44,2,4.47,4.47,0,0,0,1.71,3.33,15.15,15.15,0,0,0,4.06,1.84,38,38,0,0,1-2.08,4.39c-.57,1.05-1.2,2.1-1.84,3.14,0-.43,0-2.1,0-2.22-.21-1.59-1.56-4.54-3.32-4.86a2.13,2.13,0,0,0-2.45,2,4.47,4.47,0,0,0,1.71,3.32,14.58,14.58,0,0,0,4,1.83c-.29.47-.58.95-.88,1.42-1,1.53-1.93,3.07-2.84,4.62-.32.53-.61,1.07-.91,1.61,0-.63,0-1.79,0-1.89-.21-1.59-1.56-4.54-3.32-4.87a2.13,2.13,0,0,0-2.45,2,4.47,4.47,0,0,0,1.71,3.33,14,14,0,0,0,3.89,1.78c-.48.9-.94,1.81-1.35,2.72-.17.4-.37.79-.51,1.18s-.3.78-.44,1.16c-.28.8-.54,1.55-.77,2.3-.13.38-.23.74-.35,1.11.1-.64.24-1.67.24-1.76,0-1.61-.85-4.73-2.55-5.31a2.12,2.12,0,0,0-2.72,1.61,1.82,1.82,0,0,0-.06.46,8.3,8.3,0,0,0-1.4,3.93c0,.1.07,1.32.13,2-.16-.49-.32-1-.47-1.49-.23-.74-.45-1.52-.67-2.28-.1-.4-.19-.8-.29-1.21s-.17-.81-.25-1.22c-.11-.6-.2-1.23-.28-1.86a13.64,13.64,0,0,0,3.91-1.49,4.45,4.45,0,0,0,1.94-3.19,2.13,2.13,0,0,0-2.3-2.18c-1.79.2-3.33,3.05-3.65,4.62,0,.06-.05.4-.08.8-.07-.62-.13-1.23-.18-1.86-.13-1.77-.21-3.58-.29-5.4l-.06-1.13a13.87,13.87,0,0,0,4-1.52,4.43,4.43,0,0,0,1.94-3.19,2.13,2.13,0,0,0-2.3-2.18c-1.79.2-3.33,3.05-3.65,4.63,0,.05-.05.46-.09.91-.06-1-.14-2-.24-2.94a35.75,35.75,0,0,0-.83-5,14.62,14.62,0,0,0,4.16-1.55,4.45,4.45,0,0,0,1.94-3.2,2.13,2.13,0,0,0-2.3-2.17c-1.79.2-3.33,3.05-3.65,4.62,0,.12-.16,1.58-.18,2.11,0,0,0,0,0-.06a27.27,27.27,0,0,0-1.67-4.64,37,37,0,0,0-2.07-3.89c-.69-1.18-1.4-2.21-2-3.11-.35-.49-.67-.93-1-1.34h0s-.47-2.12-.51-2.25c-.55-1.51-2.49-4.1-4.29-4a2.13,2.13,0,0,0-2,2.48A4.41,4.41,0,0,0,394.05,431.37Z" style="fill:#263238"></path></g><g id="freepik--Lines--inject-6"><g style="opacity:0.30000000000000004"><path d="M320.66,286.58H196.88a.47.47,0,0,1-.43-.25l-61.9-107.19a.55.55,0,0,1,0-.5l61.9-107.2a.47.47,0,0,1,.43-.25H320.66a.48.48,0,0,1,.43.25L383,178.64a.5.5,0,0,1,0,.5L321.09,286.33A.48.48,0,0,1,320.66,286.58Zm-123.49-1h123.2L382,178.89l-61.6-106.7H197.17l-61.6,106.7Z"></path><path d="M36.43,109.19a.5.5,0,0,1-.49-.39.51.51,0,0,1,.38-.6L196.05,71.37,158,16.69a.5.5,0,0,1,.82-.58L197.29,71.4a.52.52,0,0,1,.05.47.5.5,0,0,1-.35.31l-160.45,37Z"></path><path d="M474.79,72.19H320.66a.5.5,0,0,1-.42-.23.48.48,0,0,1,0-.49l23.45-49.14a.5.5,0,1,1,.9.43L321.45,71.19H474.79a.5.5,0,0,1,.5.5A.5.5,0,0,1,474.79,72.19Z"></path><path d="M112,457.25a.59.59,0,0,1-.22-.05.5.5,0,0,1-.22-.67l84.89-170.67a.49.49,0,0,1,.67-.22.5.5,0,0,1,.23.67L112.43,457A.48.48,0,0,1,112,457.25Z"></path><path d="M405.55,417a.51.51,0,0,1-.42-.23L320.24,286.36a.49.49,0,0,1-.06-.41.47.47,0,0,1,.26-.31l157.43-78.39a.49.49,0,0,1,.67.22.5.5,0,0,1-.22.67L321.38,286.28,406,416.2a.5.5,0,0,1-.14.69A.57.57,0,0,1,405.55,417Z"></path><path d="M251.26,446.33a.48.48,0,0,1-.37-.17l-84.56-94.78L23.79,314.55a.5.5,0,1,1,.25-1l142.69,36.87a.47.47,0,0,1,.25.15l84.65,94.89a.5.5,0,0,1,0,.71A.46.46,0,0,1,251.26,446.33Z"></path><path d="M211.66,399.9a.5.5,0,0,1-.16-1l149.22-49.74,21.33-170.37a.51.51,0,0,1,.5-.43H480a.5.5,0,0,1,.5.5.51.51,0,0,1-.5.5H383L361.67,349.63a.48.48,0,0,1-.34.41L211.82,399.88Z"></path><path d="M361.18,350.06a.5.5,0,0,1-.48-.34.5.5,0,0,1,.32-.63l114.7-37.55a.5.5,0,1,1,.31.95L361.33,350A.39.39,0,0,1,361.18,350.06Z"></path><path d="M166.6,351.43a.51.51,0,0,1-.49-.41L134.58,179.44,16.46,193a.5.5,0,0,1-.11-1l118.58-13.65a.5.5,0,0,1,.55.41l31.61,172a.5.5,0,0,1-.4.58Z"></path><path d="M170.13,350.93a3.53,3.53,0,1,0-3.53,3.53A3.53,3.53,0,0,0,170.13,350.93Z"></path><path d="M214.08,399.65a3.53,3.53,0,1,0-3.53,3.53A3.53,3.53,0,0,0,214.08,399.65Z"></path><circle cx="361.18" cy="349.56" r="3.53"></circle><path d="M324.19,286.08a3.53,3.53,0,1,0-3.53,3.53A3.53,3.53,0,0,0,324.19,286.08Z"></path><path d="M374.92,261.05a3.53,3.53,0,1,0-3.53,3.53A3.53,3.53,0,0,0,374.92,261.05Z"></path><path d="M324.19,71.69a3.53,3.53,0,1,0-3.53,3.53A3.53,3.53,0,0,0,324.19,71.69Z"></path><path d="M200.41,71.69a3.53,3.53,0,1,0-3.53,3.53A3.53,3.53,0,0,0,200.41,71.69Z"></path><path d="M138.52,178.89a3.53,3.53,0,1,0-3.53,3.53A3.53,3.53,0,0,0,138.52,178.89Z"></path><circle cx="196.88" cy="286.08" r="3.53"></circle><path d="M382.71,179h-.12a.5.5,0,0,1-.37-.6l33.23-141.9a.5.5,0,1,1,1,.22L383.2,178.66A.5.5,0,0,1,382.71,179Z"></path><path d="M135,179.39a.51.51,0,0,1-.4-.2L44.28,58.94a.5.5,0,0,1,.1-.7.51.51,0,0,1,.7.1l90.31,120.25a.51.51,0,0,1-.1.7A.57.57,0,0,1,135,179.39Z"></path><path d="M386.24,178.54a3.53,3.53,0,1,0-3.53,3.53A3.53,3.53,0,0,0,386.24,178.54Z"></path><path d="M78.78,98.79a3.53,3.53,0,1,0-3.53,3.53A3.53,3.53,0,0,0,78.78,98.79Z"></path></g></g><g id="freepik--Videos--inject-6"><rect x="330.6" y="250.14" width="40.29" height="29.22" rx="4.12" style="fill:#263238"></rect><path d="M366.77,279.87h-32a4.64,4.64,0,0,1-4.63-4.63v-21a4.64,4.64,0,0,1,4.63-4.63h32a4.63,4.63,0,0,1,4.62,4.63v21A4.63,4.63,0,0,1,366.77,279.87Zm-32-29.23a3.64,3.64,0,0,0-3.63,3.63v21a3.64,3.64,0,0,0,3.63,3.63h32a3.63,3.63,0,0,0,3.62-3.63v-21a3.63,3.63,0,0,0-3.62-3.63Z" style="fill:#263238"></path><polygon points="357.86 264.16 345.11 256.8 345.11 271.51 357.86 264.16" style="fill:#fff"></polygon><path d="M345.11,272a.57.57,0,0,1-.25-.06.52.52,0,0,1-.25-.44V256.8a.5.5,0,0,1,.25-.43.5.5,0,0,1,.5,0l12.75,7.35a.5.5,0,0,1,0,.87L345.36,272A.51.51,0,0,1,345.11,272Zm.5-14.34v13l11.25-6.49Z" style="fill:#263238"></path><rect x="411.73" y="358.79" width="40.29" height="29.22" rx="4.12" style="fill:#263238"></rect><path d="M447.9,388.52h-32a4.63,4.63,0,0,1-4.62-4.63v-21a4.63,4.63,0,0,1,4.62-4.63h32a4.63,4.63,0,0,1,4.62,4.63v21A4.63,4.63,0,0,1,447.9,388.52Zm-32-29.23a3.63,3.63,0,0,0-3.62,3.63v21a3.63,3.63,0,0,0,3.62,3.63h32a3.63,3.63,0,0,0,3.62-3.63v-21a3.63,3.63,0,0,0-3.62-3.63Z" style="fill:#263238"></path><polygon points="438.98 372.81 426.24 365.45 426.24 380.16 438.98 372.81" style="fill:#fff"></polygon><path d="M426.24,380.66a.54.54,0,0,1-.25-.06.52.52,0,0,1-.25-.44V365.45A.5.5,0,0,1,426,365a.5.5,0,0,1,.5,0l12.74,7.35a.5.5,0,0,1,.25.44.48.48,0,0,1-.25.43l-12.74,7.36A.54.54,0,0,1,426.24,380.66Zm.5-14.34v13L438,372.81Z" style="fill:#263238"></path><rect x="248.26" y="54.14" width="41.49" height="30.09" rx="4.12" style="fill:#263238"></rect><path d="M285.62,84.73H252.38a4.62,4.62,0,0,1-4.62-4.62V58.27a4.63,4.63,0,0,1,4.62-4.63h33.24a4.64,4.64,0,0,1,4.63,4.63V80.11A4.63,4.63,0,0,1,285.62,84.73ZM252.38,54.64a3.63,3.63,0,0,0-3.62,3.63V80.11a3.62,3.62,0,0,0,3.62,3.62h33.24a3.63,3.63,0,0,0,3.63-3.62V58.27a3.64,3.64,0,0,0-3.63-3.63Z" style="fill:#263238"></path><polygon points="276.32 68.57 263.2 60.99 263.2 76.15 276.32 68.57" style="fill:#fff"></polygon><path d="M263.2,76.65a.55.55,0,0,1-.25-.07.48.48,0,0,1-.25-.43V61a.5.5,0,0,1,.75-.43l13.12,7.58a.49.49,0,0,1,0,.86l-13.12,7.58A.59.59,0,0,1,263.2,76.65Zm.5-14.79V75.28l11.62-6.71Z" style="fill:#263238"></path><rect x="133.18" y="283.86" width="40.29" height="29.22" rx="4.12" style="fill:#263238"></rect><path d="M169.35,313.58h-32a4.63,4.63,0,0,1-4.63-4.62V288a4.64,4.64,0,0,1,4.63-4.63h32A4.63,4.63,0,0,1,174,288v21A4.62,4.62,0,0,1,169.35,313.58Zm-32-29.22a3.64,3.64,0,0,0-3.63,3.63v21a3.63,3.63,0,0,0,3.63,3.62h32A3.62,3.62,0,0,0,173,309V288a3.63,3.63,0,0,0-3.62-3.63Z" style="fill:#263238"></path><polygon points="160.43 297.88 147.69 290.52 147.69 305.23 160.43 297.88" style="fill:#fff"></polygon><path d="M147.69,305.73a.57.57,0,0,1-.25-.06.52.52,0,0,1-.25-.44V290.52a.5.5,0,0,1,.75-.43l12.74,7.35a.5.5,0,0,1,0,.87l-12.74,7.36A.54.54,0,0,1,147.69,305.73Zm.5-14.35v13l11.24-6.49Z" style="fill:#263238"></path><rect x="74.29" y="124.07" width="41.49" height="30.09" rx="4.12" style="fill:#263238"></rect><path d="M111.65,154.66H78.41A4.62,4.62,0,0,1,73.79,150V128.2a4.63,4.63,0,0,1,4.62-4.63h33.24a4.64,4.64,0,0,1,4.63,4.63V150A4.63,4.63,0,0,1,111.65,154.66ZM78.41,124.57a3.63,3.63,0,0,0-3.62,3.63V150a3.62,3.62,0,0,0,3.62,3.62h33.24a3.63,3.63,0,0,0,3.63-3.62V128.2a3.64,3.64,0,0,0-3.63-3.63Z" style="fill:#263238"></path><polygon points="102.35 138.5 89.23 130.93 89.23 146.08 102.35 138.5" style="fill:#fff"></polygon><path d="M89.23,146.58a.45.45,0,0,1-.25-.07.5.5,0,0,1-.25-.43V130.93a.52.52,0,0,1,.25-.44.5.5,0,0,1,.5,0l13.12,7.58a.48.48,0,0,1,.25.43.5.5,0,0,1-.25.44l-13.12,7.57A.45.45,0,0,1,89.23,146.58Zm.5-14.79v13.42l11.62-6.71Z" style="fill:#263238"></path></g><g id="freepik--Documents--inject-6"><polygon points="450.21 349.74 415.6 349.74 415.6 305.55 444.66 305.55 450.21 312.11 450.21 349.74" style="fill:#fff"></polygon><path d="M450.21,350.24H415.6a.51.51,0,0,1-.5-.5V305.55a.51.51,0,0,1,.5-.5h29.06a.49.49,0,0,1,.38.18l5.55,6.56a.47.47,0,0,1,.12.32v37.63A.5.5,0,0,1,450.21,350.24Zm-34.11-1h33.61V312.29l-5.28-6.24H416.1Z" style="fill:#263238"></path><polygon points="444.66 305.55 444.66 312.41 450.21 312.41 444.66 305.55" style="fill:#fff"></polygon><path d="M450.21,312.91h-5.55a.5.5,0,0,1-.5-.5v-6.86a.51.51,0,0,1,.33-.47.5.5,0,0,1,.56.16l5.55,6.85a.49.49,0,0,1,.06.53A.48.48,0,0,1,450.21,312.91Zm-5-1h4l-4-5Z" style="fill:#263238"></path><path d="M441.37,319.19h-18a.5.5,0,0,1-.5-.5.51.51,0,0,1,.5-.5h18a.5.5,0,0,1,.5.5A.5.5,0,0,1,441.37,319.19Z" style="fill:#263238"></path><path d="M441.37,326.67h-18a.5.5,0,0,1-.5-.5.51.51,0,0,1,.5-.5h18a.5.5,0,0,1,.5.5A.5.5,0,0,1,441.37,326.67Z" style="fill:#263238"></path><path d="M441.37,334.16h-18a.51.51,0,0,1-.5-.5.5.5,0,0,1,.5-.5h18a.5.5,0,0,1,.5.5A.5.5,0,0,1,441.37,334.16Z" style="fill:#263238"></path><polygon points="309 428.39 274.39 428.39 274.39 384.2 303.45 384.2 309 390.76 309 428.39" style="fill:#fff"></polygon><path d="M309,428.89H274.39a.5.5,0,0,1-.5-.5V384.2a.5.5,0,0,1,.5-.5h29.06a.53.53,0,0,1,.38.18l5.55,6.56a.47.47,0,0,1,.12.32v37.63A.51.51,0,0,1,309,428.89Zm-34.11-1H308.5V390.94l-5.29-6.24H274.89Z" style="fill:#263238"></path><polygon points="303.45 384.2 303.45 391.06 309 391.06 303.45 384.2" style="fill:#fff"></polygon><path d="M309,391.56h-5.55a.5.5,0,0,1-.5-.5V384.2a.5.5,0,0,1,.33-.47.5.5,0,0,1,.56.16l5.55,6.85a.51.51,0,0,1,.06.53A.49.49,0,0,1,309,391.56Zm-5.05-1h4l-4-4.94Z" style="fill:#263238"></path><path d="M300.15,397.84H282.2a.5.5,0,0,1-.5-.5.5.5,0,0,1,.5-.5h17.95a.5.5,0,0,1,.5.5A.5.5,0,0,1,300.15,397.84Z" style="fill:#263238"></path><path d="M300.15,405.33H282.2a.5.5,0,0,1-.5-.5.5.5,0,0,1,.5-.5h17.95a.5.5,0,0,1,.5.5A.5.5,0,0,1,300.15,405.33Z" style="fill:#263238"></path><path d="M300.15,412.81H282.2a.5.5,0,0,1-.5-.5.5.5,0,0,1,.5-.5h17.95a.5.5,0,0,1,.5.5A.5.5,0,0,1,300.15,412.81Z" style="fill:#263238"></path><polygon points="325.09 442.69 290.48 442.69 290.48 398.5 319.53 398.5 325.09 405.06 325.09 442.69" style="fill:#fff"></polygon><path d="M325.09,443.19H290.48a.5.5,0,0,1-.5-.5V398.5a.5.5,0,0,1,.5-.5h29a.53.53,0,0,1,.39.18l5.55,6.56a.53.53,0,0,1,.12.32v37.63A.51.51,0,0,1,325.09,443.19Zm-34.11-1h33.61V405.24L319.3,399H291Z" style="fill:#263238"></path><polygon points="319.53 398.5 319.53 405.36 325.09 405.36 319.53 398.5" style="fill:#fff"></polygon><path d="M325.09,405.86h-5.56a.5.5,0,0,1-.5-.5V398.5a.51.51,0,0,1,.34-.47.48.48,0,0,1,.55.16l5.55,6.85a.49.49,0,0,1,.07.53A.5.5,0,0,1,325.09,405.86Zm-5.06-1h4l-4-4.94Z" style="fill:#263238"></path><path d="M316.24,412.14H298.29a.5.5,0,0,1-.5-.5.5.5,0,0,1,.5-.5h17.95a.5.5,0,0,1,.5.5A.5.5,0,0,1,316.24,412.14Z" style="fill:#263238"></path><path d="M316.24,419.63H298.29a.5.5,0,0,1-.5-.5.5.5,0,0,1,.5-.5h17.95a.5.5,0,0,1,.5.5A.5.5,0,0,1,316.24,419.63Z" style="fill:#263238"></path><path d="M316.24,427.11H298.29a.5.5,0,0,1-.5-.5.5.5,0,0,1,.5-.5h17.95a.5.5,0,0,1,.5.5A.5.5,0,0,1,316.24,427.11Z" style="fill:#263238"></path><polygon points="396.85 88.16 362.24 88.16 362.24 43.98 391.3 43.98 396.85 50.53 396.85 88.16" style="fill:#fff"></polygon><path d="M396.85,88.66H362.24a.5.5,0,0,1-.5-.5V44a.5.5,0,0,1,.5-.5H391.3a.5.5,0,0,1,.38.17l5.55,6.56a.49.49,0,0,1,.12.32V88.16A.5.5,0,0,1,396.85,88.66Zm-34.11-1h33.61V50.72l-5.28-6.24H362.74Z" style="fill:#263238"></path><polygon points="391.3 43.98 391.3 50.83 396.85 50.83 391.3 43.98" style="fill:#fff"></polygon><path d="M396.85,51.33H391.3a.5.5,0,0,1-.5-.5V44a.51.51,0,0,1,.33-.48.52.52,0,0,1,.56.16l5.55,6.86a.51.51,0,0,1,.06.53A.5.5,0,0,1,396.85,51.33Zm-5.05-1h4l-4-4.94Z" style="fill:#263238"></path><path d="M388,57.62h-18a.5.5,0,0,1-.5-.5.5.5,0,0,1,.5-.5h18a.5.5,0,0,1,.5.5A.51.51,0,0,1,388,57.62Z" style="fill:#263238"></path><path d="M388,65.1h-18a.5.5,0,0,1,0-1h18a.5.5,0,0,1,0,1Z" style="fill:#263238"></path><path d="M388,72.58h-18a.5.5,0,0,1,0-1h18a.5.5,0,0,1,0,1Z" style="fill:#263238"></path><polygon points="64.11 170.39 29.5 170.39 29.5 126.2 58.55 126.2 64.11 132.76 64.11 170.39" style="fill:#fff"></polygon><path d="M64.11,170.89H29.5a.5.5,0,0,1-.5-.5V126.2a.5.5,0,0,1,.5-.5H58.55a.53.53,0,0,1,.39.18l5.55,6.56a.53.53,0,0,1,.12.32v37.63A.51.51,0,0,1,64.11,170.89Zm-34.11-1H63.61V132.94l-5.29-6.24H30Z" style="fill:#263238"></path><polygon points="58.55 126.2 58.55 133.06 64.11 133.06 58.55 126.2" style="fill:#fff"></polygon><path d="M64.11,133.56H58.55a.51.51,0,0,1-.5-.5V126.2a.51.51,0,0,1,.34-.47.48.48,0,0,1,.55.16l5.56,6.85a.51.51,0,0,1,.06.53A.5.5,0,0,1,64.11,133.56Zm-5.06-1h4l-4-5Z" style="fill:#263238"></path><path d="M55.26,139.84H37.31a.5.5,0,0,1-.5-.5.5.5,0,0,1,.5-.5H55.26a.5.5,0,0,1,.5.5A.5.5,0,0,1,55.26,139.84Z" style="fill:#263238"></path><path d="M55.26,147.33H37.31a.5.5,0,0,1-.5-.5.5.5,0,0,1,.5-.5H55.26a.5.5,0,0,1,.5.5A.5.5,0,0,1,55.26,147.33Z" style="fill:#263238"></path><path d="M55.26,154.81H37.31a.5.5,0,0,1-.5-.5.5.5,0,0,1,.5-.5H55.26a.5.5,0,0,1,.5.5A.5.5,0,0,1,55.26,154.81Z" style="fill:#263238"></path></g><g id="freepik--Character--inject-6"><path d="M104.1,205.11a30.85,30.85,0,0,0,5-2.61c1.31-1,1.83-5.62-.78-12.28s-13.2-16.33-24-16.46A22.75,22.75,0,0,0,62.81,188c-2.74,7.19,1.7,18.55,1.7,18.55l8.36.79s13.46-3.14,19.21-3.4A52.33,52.33,0,0,1,104.1,205.11Z" style="fill:#263238"></path><path d="M72.91,207.84,64.16,207l-.11-.29c-.19-.47-4.48-11.63-1.7-18.91A23.38,23.38,0,0,1,84,173.26h.3c11,.13,21.85,10,24.49,16.78,2.59,6.6,2.26,11.55.64,12.85a30.91,30.91,0,0,1-5.08,2.68l-.15.07-.16,0a52.72,52.72,0,0,0-11.89-1.16c-5.64.25-19,3.35-19.11,3.38Zm-8-1.76,8,.75c1.22-.28,13.65-3.14,19.22-3.39a52.16,52.16,0,0,1,12,1.15,29.1,29.1,0,0,0,4.7-2.48c1-.78,1.69-5-.94-11.71-2.54-6.49-13-16-23.58-16.14a22.31,22.31,0,0,0-21,13.92C60.87,194.48,64.22,204.29,64.87,206.08Z" style="fill:#263238"></path><path d="M62.29,196.75s-4.44-5.09-12.41-1.43S37.6,207.6,40,215.7s8.88,9.67,13.72,8.62a9.08,9.08,0,0,0,6.4-5.1s-2.22-1.3-2.61-2.35,1.83-1.17,1.83-1.17a7.73,7.73,0,0,1-2.36-5.36c0-3.27,2.49-9.28,5.49-9.28Z" style="fill:#263238"></path><path d="M51,225.11c-4.53,0-9.5-2.36-11.51-9.27-2.42-8.33,1.87-17.16,10.2-21s12.95,1.51,13,1.56l.11.14.16,5h-.52c-2.52,0-5,5.56-5,8.78a7.23,7.23,0,0,0,2.19,5l.9.8-1.2.08a2.46,2.46,0,0,0-1.4.42c.24.72,1.6,1.7,2.4,2.17l.37.22-.15.4a9.53,9.53,0,0,1-6.77,5.4A13.4,13.4,0,0,1,51,225.11Zm4.49-30.63a12.86,12.86,0,0,0-5.38,1.29c-7.88,3.61-11.94,11.94-9.66,19.79s8.47,9.28,13.13,8.27a8.56,8.56,0,0,0,5.87-4.41A6.75,6.75,0,0,1,57,217.05a1,1,0,0,1,.09-1,2.07,2.07,0,0,1,1.21-.73,8,8,0,0,1-1.86-5c0-3.18,2.28-9.14,5.48-9.73L61.8,197A9,9,0,0,0,55.47,194.48Z" style="fill:#263238"></path><path d="M81.28,371,88,388.5s-8.66,10.07-10.78,19.79-7.78,27.76-10.43,33.41-8,13.61-8.13,14.32-1.06,3-.36,4.77,5,3,5.84,4.6,3,6,6,8.31,7.77,6.36,9.54,5.48,2.3-1.06,1.77-2.65S77,467.86,76.33,463.8s-3-11.14-2.47-13.61,12.9-19.8,20.5-30.94,19.09-32.52,19.09-35.17-2.65-21-2.65-21S85.52,367.11,81.28,371Z" style="fill:#fff"></path><path d="M79.11,479.8c-1.8,0-4.62-2.08-8-4.74-.43-.34-.85-.67-1.24-1-2.73-2.09-4.71-5.8-5.77-7.79l-.37-.68a7.63,7.63,0,0,0-2.58-1.91c-1.4-.81-2.84-1.65-3.28-2.74-.67-1.68-.07-3.73.23-4.71,0-.15.08-.28.1-.37a24.51,24.51,0,0,1,1.89-3.28c1.83-3,4.59-7.54,6.27-11.13,2.68-5.72,8.32-23.77,10.4-33.3,2-9,9.37-18.2,10.7-19.79l-6.74-17.54.25-.23c4.31-3.95,28.74-7.92,29.78-8.08l.5-.08.08.5c.11.75,2.65,18.45,2.65,21.11,0,2.89-11.65,24.43-19.17,35.46-1.81,2.65-3.9,5.65-6,8.72-6.58,9.49-14,20.25-14.41,22-.33,1.54.58,5.28,1.39,8.59.44,1.78.85,3.46,1.09,4.83.48,2.78,2.52,7.08,3.87,9.92.62,1.29,1.06,2.23,1.23,2.74.65,1.93-.22,2.36-1.79,3.14l-.22.11A1.79,1.79,0,0,1,79.11,479.8Zm2.77-108.65,6.69,17.45-.19.22c-.09.1-8.61,10.1-10.68,19.58s-7.76,27.75-10.46,33.52c-1.71,3.64-4.49,8.2-6.33,11.22-.87,1.42-1.69,2.76-1.77,3s-.07.24-.11.4c-.27.88-.81,2.7-.26,4.06.31.77,1.66,1.55,2.85,2.24a7.85,7.85,0,0,1,2.95,2.3c.11.19.24.42.38.69,1,1.92,2.94,5.5,5.5,7.46l1.25,1c2.44,1.9,6.51,5.08,7.77,4.46l.23-.11c1.59-.8,1.65-.83,1.28-1.94-.14-.44-.6-1.41-1.18-2.62-1.38-2.89-3.45-7.26-4-10.17-.23-1.35-.64-3-1.07-4.77-.87-3.58-1.78-7.28-1.4-9s6-10.06,14.57-22.39c2.12-3.07,4.2-6.07,6-8.72,7.64-11.2,19-32.47,19-34.89s-2.14-17.49-2.57-20.46C106.89,364.2,86.26,367.77,81.88,371.15Z" style="fill:#263238"></path><path d="M110.8,363s-25.28,4.07-29.52,8L88,388.5s-8.66,10.07-10.78,19.79a261.21,261.21,0,0,1-9.4,31c1.36,2,4.1,4.55,9.25,5.29,4.29-6.64,12-17.49,17.29-25.3,7.6-11.13,19.09-32.52,19.09-35.17S110.8,363,110.8,363Z" style="fill:#263238"></path><path d="M77.31,445.09,77,445c-5.29-.75-8.14-3.4-9.59-5.49l-.15-.22.1-.25a260.42,260.42,0,0,0,9.37-30.89c2-9,9.37-18.2,10.7-19.79l-6.74-17.54.25-.23c4.31-3.95,28.74-7.92,29.78-8.08l.5-.08.08.5c.11.75,2.65,18.45,2.65,21.11,0,2.89-11.65,24.43-19.17,35.46-1.81,2.64-3.89,5.64-6,8.71-4.15,6-8.45,12.18-11.28,16.57Zm-8.92-5.89a12.45,12.45,0,0,0,8.43,4.8c2.85-4.37,7.05-10.45,11.13-16.33,2.12-3.06,4.19-6.05,6-8.7,7.64-11.2,19-32.47,19-34.89s-2.14-17.49-2.57-20.46c-3.49.58-24.12,4.15-28.5,7.53l6.69,17.45-.19.22c-.09.1-8.61,10.1-10.68,19.58A260.36,260.36,0,0,1,68.39,439.2Z" style="fill:#263238"></path><path d="M81.46,476.53c-.53-1.59-4.42-8.67-5.13-12.73-.33-1.92-1-4.5-1.59-6.95l-.18-.12a3.81,3.81,0,0,0-3,.71L70.5,458.5a14.14,14.14,0,0,1-6.89-5.84l-1.5-2.47c-1.82,3-3.36,5.46-3.45,5.83-.18.71-1.06,3-.36,4.77s5,3,5.84,4.6,3,6,6,8.31,7.77,6.36,9.54,5.48S82,478.12,81.46,476.53Z" style="fill:#fff"></path><path d="M79.11,479.8c-1.8,0-4.62-2.08-8-4.74-.43-.34-.85-.67-1.24-1-2.73-2.09-4.71-5.8-5.77-7.79l-.37-.68a7.63,7.63,0,0,0-2.58-1.91c-1.4-.81-2.84-1.65-3.28-2.74-.67-1.68-.07-3.73.23-4.71,0-.15.08-.28.1-.37a26,26,0,0,1,1.9-3.31c.49-.8,1-1.7,1.61-2.66l.43-.71.43.71c.44.72.93,1.54,1.49,2.48a13.84,13.84,0,0,0,6.35,5.5l.83-.83a4.25,4.25,0,0,1,3.44-.84l.2.08.33.23,0,.19c.17.7.35,1.42.52,2.13.43,1.78.85,3.46,1.09,4.84.48,2.78,2.52,7.08,3.87,9.92.62,1.29,1.06,2.23,1.23,2.74h0c.65,1.93-.22,2.36-1.79,3.14l-.22.11A1.79,1.79,0,0,1,79.11,479.8Zm-17-28.65-1.18,2c-.88,1.43-1.71,2.79-1.79,3s-.07.24-.11.4c-.27.88-.81,2.7-.26,4.06.31.77,1.66,1.55,2.85,2.24a7.85,7.85,0,0,1,2.95,2.3c.11.19.24.42.38.69,1,1.92,2.94,5.5,5.5,7.46l1.25,1c2.44,1.9,6.51,5.08,7.77,4.46l.23-.11c1.59-.8,1.65-.83,1.28-1.94h0c-.14-.44-.6-1.41-1.18-2.62-1.38-2.89-3.45-7.26-4-10.17-.23-1.35-.64-3-1.07-4.79-.16-.63-.31-1.27-.46-1.9a3.12,3.12,0,0,0-2.4.59l-1.28,1.28-.29-.1a14.45,14.45,0,0,1-7.16-6.05Z" style="fill:#263238"></path><path d="M45.78,370.58s2.35,23.75,1.56,29.23-1.85,23,.5,34.19,6,24.53,7.3,28.45-.78,9.13-1.3,12.79-.52,5.21,1,5.74,13.57,3.65,19.84,3.39,8.09-1.83,7.82-3.39-3.13-2.35-5.48-4.18a46.47,46.47,0,0,1-7.8-8.05c-2.09-2.87-3.68-7.09-3.68-8.91s1.57-31.84,1.57-39.67,3.65-23.75,5.48-31.06,3.65-17.48,3.65-18.26S45.78,370.58,45.78,370.58Z" style="fill:#fff"></path><path d="M74,484.88c-6.44,0-17.61-2.89-19.23-3.43-2-.67-1.87-2.83-1.38-6.28.15-1.05.42-2.2.71-3.42.71-3,1.51-6.46.62-9.14-1.24-3.72-5-17.14-7.32-28.51-2.43-11.57-1.2-29.49-.5-34.36.76-5.36-1.55-28.87-1.57-29.11l-.05-.54h.54c13.66-.23,30.1-.35,30.85.38l.15.15v.24c0,.93-1.91,11.34-3.67,18.39-.91,3.65-5.46,22.3-5.46,30.93,0,5.29-.71,20.57-1.18,30.67-.22,4.7-.39,8.41-.39,9,0,1.7,1.57,5.84,3.59,8.62a45.11,45.11,0,0,0,7.7,8A22.7,22.7,0,0,0,80,478.07c1.53.86,2.85,1.61,3.05,2.82a2.19,2.19,0,0,1-.48,1.76c-1.06,1.3-3.69,2.05-7.82,2.22ZM46.33,371.08c.35,3.65,2.23,23.72,1.51,28.8-.69,4.83-1.91,22.57.48,34s6.06,24.69,7.3,28.39c1,2.95.14,6.53-.6,9.69-.28,1.2-.54,2.33-.69,3.33-.54,3.8-.4,4.82.71,5.19,1.66.55,13.52,3.64,19.65,3.37,5-.21,6.6-1.25,7.09-1.85a1.15,1.15,0,0,0,.27-1c-.12-.75-1.25-1.39-2.55-2.12a22.54,22.54,0,0,1-2.74-1.74,46.44,46.44,0,0,1-7.9-8.16c-2.16-3-3.78-7.31-3.78-9.2,0-.61.17-4.15.39-9,.47-10.1,1.18-25.36,1.18-30.63,0-8.53,4.2-26,5.49-31.18,1.72-6.87,3.35-15.89,3.61-17.81C73.24,370.79,57.27,370.89,46.33,371.08Z" style="fill:#263238"></path><path d="M65.83,454c.44-9.57,1.32-27.94,1.32-33.81,0-7.83,3.65-23.75,5.48-31.06s3.65-17.48,3.65-18.26-30.5-.27-30.5-.27,2.35,23.75,1.56,29.23-1.85,23,.5,34.19c1.49,7.14,3.51,15.12,5.12,21A18.14,18.14,0,0,0,65.83,454Z" style="fill:#263238"></path><path d="M58.27,456.21a21.19,21.19,0,0,1-5.44-.73l-.28-.08-.07-.27c-.93-3.4-3.3-12.25-5.13-21-2.43-11.57-1.2-29.49-.5-34.36.76-5.36-1.55-28.87-1.57-29.11l-.05-.54h.54c13.66-.23,30.1-.35,30.85.38l.15.15v.24c0,.93-1.91,11.34-3.67,18.39-.91,3.65-5.46,22.3-5.46,30.93,0,5.3-.71,20.6-1.18,30.72l-.16,3.41-.26.13A17.27,17.27,0,0,1,58.27,456.21Zm-4.9-1.63a17.76,17.76,0,0,0,12-.92l.13-2.82c.47-10.11,1.18-25.39,1.18-30.67,0-8.53,4.2-26,5.49-31.18,1.72-6.87,3.35-15.89,3.61-17.81-2.51-.39-18.48-.29-29.42-.1.35,3.65,2.23,23.72,1.51,28.8-.69,4.83-1.91,22.57.48,34C50.11,442.42,52.39,451,53.37,454.58Z" style="fill:#263238"></path><path d="M74.72,484.37c6.26-.26,8.09-1.83,7.82-3.39s-3.13-2.35-5.48-4.18a46.47,46.47,0,0,1-7.8-8.05,22.13,22.13,0,0,1-1.89-3.22A1.75,1.75,0,0,0,65,467c-.35,2.12-.53,4.07-.53,4.07s-5.29-.78-9.45-1.46c-.41,2-1,4-1.2,5.65-.52,3.65-.52,5.21,1,5.74S68.45,484.63,74.72,484.37Z" style="fill:#fff"></path><path d="M74,484.88c-6.44,0-17.61-2.89-19.23-3.43-2-.67-1.87-2.83-1.38-6.28.15-1.05.42-2.21.71-3.43.17-.73.35-1.49.51-2.25l.09-.47.48.08c3.35.54,7.48,1.16,8.91,1.38.08-.73.24-2.12.49-3.58a2.22,2.22,0,0,1,.94-1.6,2.65,2.65,0,0,1,2-.25l.23.05.1.21a21.14,21.14,0,0,0,1.85,3.15,45.11,45.11,0,0,0,7.7,8A22.7,22.7,0,0,0,80,478.07c1.53.86,2.85,1.61,3.05,2.82a2.19,2.19,0,0,1-.48,1.76c-1.06,1.3-3.69,2.05-7.82,2.22ZM55.44,470.16c-.14.61-.28,1.22-.42,1.81-.28,1.2-.54,2.33-.69,3.34-.54,3.8-.4,4.82.71,5.19,1.66.55,13.52,3.64,19.65,3.37,5-.21,6.6-1.25,7.09-1.85a1.15,1.15,0,0,0,.27-1c-.12-.75-1.25-1.39-2.55-2.12a22.54,22.54,0,0,1-2.74-1.74,46.44,46.44,0,0,1-7.9-8.16A22.09,22.09,0,0,1,67,466a1.44,1.44,0,0,0-1,.16,1.32,1.32,0,0,0-.51.92c-.34,2.08-.52,4-.52,4l0,.53-.52-.08S59.47,470.81,55.44,470.16Z" style="fill:#263238"></path><path d="M59.74,228.52s-18.13,7.42-18.13,9.23,6.26,61.31,6.26,61.31A283.22,283.22,0,0,0,36,341.42c-4,21.42-1,33-1,33s18.63,3.79,36.1,1.48,36.15-4.53,39.45-5.19a48.65,48.65,0,0,1,5.6-.82s-2.37-20-8-36.84S96.32,295.6,96.32,295.6s-1.48-54.39-1.81-55.7-10.89-8.46-17.06-9.18S59.74,228.52,59.74,228.52Z" style="fill:#6F65E8"></path><path d="M59,377.1a136.79,136.79,0,0,1-24.11-2.23l-.3-.06-.08-.3c0-.12-3-11.89,1-33.18A285.45,285.45,0,0,1,47.36,299c-.39-3.74-6.25-59.45-6.25-61.25s11.55-6.87,18.44-9.69l.12-.05.13,0c.11,0,11.6,1.49,17.7,2.2,5.91.68,17,7.78,17.49,9.55.34,1.32,1.67,49.85,1.83,55.74.39,1.29,6.46,21.19,11.84,37.34,5.56,16.66,8,36.73,8,36.93l.06.52-.52,0a49.36,49.36,0,0,0-5.54.81c-2.07.42-10,1.42-20.08,2.7-6,.77-12.81,1.63-19.41,2.5A92.88,92.88,0,0,1,59,377.1ZM35.43,374c2.52.48,19.66,3.53,35.61,1.42,6.6-.87,13.37-1.73,19.41-2.5,10-1.27,18-2.28,20-2.69,2.41-.48,4.28-.7,5.14-.78-.41-3.24-2.86-21.14-7.89-36.23-5.54-16.62-11.8-37.22-11.87-37.42l0-.13c-.41-15-1.53-54.25-1.8-55.61-.48-1.23-10.6-8.09-16.63-8.79-5.76-.67-16.29-2-17.59-2.18-8.39,3.44-17.28,7.64-17.7,8.76,0,1.37,4.1,40.64,6.27,61.21v.12l0,.11a285.44,285.44,0,0,0-11.85,42.27C33,360.7,35,372,35.43,374Z" style="fill:#263238"></path><path d="M78,358.11c-.15-.52-.5-2.14-1.08-5l1-.19c.56,2.76.92,4.41,1.06,4.9Z" style="fill:#263238"></path><path d="M76,348.72c-1.86-9.41-4.38-22.62-4.4-22.76l1-.18c0,.13,2.54,13.34,4.4,22.75Z" style="fill:#263238"></path><path d="M76.57,333.08c-.7-2.11-4.94-15.17-4.94-15.17l1-.31s4.24,13,4.94,15.17Z" style="fill:#263238"></path><path d="M94.07,325.75l-.89-.47c.5-.92,1-2,1.57-3.35l.92.38C95.11,323.64,94.57,324.8,94.07,325.75Z" style="fill:#263238"></path><path d="M97.2,318.35l-.94-.34c1.45-4,2.52-7.76,2.53-7.8l1,.28S98.66,314.28,97.2,318.35Z" style="fill:#263238"></path><path d="M94.81,313l-1-.32c.69-2.06,2.08-9,2.1-9.11l1,.2C96.88,304,95.51,310.86,94.81,313Z" style="fill:#263238"></path><rect x="65.01" y="276.19" width="1" height="2.78" transform="translate(-23.95 6.77) rotate(-5)" style="fill:#263238"></rect><polygon points="64.61 273.03 63.61 261.61 88.69 261.61 88.69 262.61 64.7 262.61 65.61 272.94 64.61 273.03" style="fill:#263238"></polygon><rect x="89.66" y="265.19" width="1" height="7.26" transform="translate(-35.49 14.65) rotate(-7.77)" style="fill:#263238"></rect><path d="M92.53,253.08a78.81,78.81,0,0,1,2.64,15.49l.37-.32c-.41-13.77-.87-27.69-1-28.35s-4.09-3.69-8.51-6C87.57,238.27,90.92,247.76,92.53,253.08Z" style="fill:#b5b5b5"></path><path d="M94.73,269.62l-.06-1a78.2,78.2,0,0,0-2.62-15.37C90.42,247.83,87,238,85.53,234l-.43-1.22,1.14.61c3.91,2.07,8.46,5.19,8.75,6.34.06.24.22.88,1.05,28.46v.24Zm-7.82-34.68c1.61,4.51,4.61,13.08,6.1,18h0a61.22,61.22,0,0,1,1.81,8.24c-.54-17.48-.73-20.83-.8-21.17C93.82,239.5,91,237.21,86.91,234.94Z" style="fill:#263238"></path><path d="M50.11,232.72c-4.34,2-8.5,4.16-8.5,5,0,1.75,5.82,57.15,6.23,61.08l10.25-.26s1.32-13.68,1.32-16.15-.66-21.92-3.8-32.64C53.07,241.09,50.86,234.78,50.11,232.72Z" style="fill:#b5b5b5"></path><path d="M47.4,299.35l0-.46c-1-9.91-6.24-59.44-6.24-61.14,0-.49,0-1.41,8.79-5.49l.5-.23.18.52c.82,2.27,3,8.48,5.51,17.09,3.11,10.64,3.82,29.71,3.82,32.78,0,2.47-1.27,15.64-1.33,16.2l0,.44Zm2.43-66c-7,3.28-7.67,4.24-7.73,4.4,0,1.22,3.33,33.27,6.19,60.52l9.34-.24c.23-2.36,1.28-13.49,1.28-15.66,0-3.05-.7-22-3.78-32.5C52.79,241.92,50.75,236,49.83,233.4Z" style="fill:#263238"></path><path d="M88.41,254.56s-1.48-5.76-3.62-12.19A78.28,78.28,0,0,0,80,231.27a14.56,14.56,0,0,0-2.5-.55c-6.18-.71-17.71-2.2-17.71-2.2s-2,.83-4.68,2c.71,1.84,1.84,4.71,3,7.58,2,4.78,4.28,16.81,4.28,16.81Z" style="fill:#b5b5b5"></path><path d="M62,255.4l-.08-.41c0-.12-2.32-12-4.25-16.72-1.19-2.87-2.31-5.71-3-7.58l-.17-.45.44-.19c2.68-1.17,4.69-2,4.69-2l.12-.05.13,0c.11,0,11.6,1.49,17.7,2.2a14.46,14.46,0,0,1,2.59.56l.2.06.1.19a77.43,77.43,0,0,1,4.87,11.17c2.12,6.37,3.62,12.17,3.64,12.23l.15.62ZM55.7,230.77c.72,1.86,1.76,4.48,2.85,7.12,1.79,4.33,3.8,14.31,4.23,16.5l25-.32c-.45-1.65-1.75-6.41-3.46-11.54a74.06,74.06,0,0,0-4.71-10.84,12.58,12.58,0,0,0-2.21-.47c-5.75-.67-16.29-2-17.59-2.18C59.36,229.22,57.77,229.88,55.7,230.77Z" style="fill:#263238"></path><path d="M64.51,218.18s-2.22,0-2.61,1.31-4.18,8.62-4,10.45,2.09,7.18,9.67,8.88,9.66-.91,9.93-1.7,3-7.31,3-7.31S68.3,218.31,64.51,218.18Z" style="fill:#b5b5b5"></path><path d="M72,239.88a21.15,21.15,0,0,1-4.58-.57c-7.83-1.75-9.92-7.33-10.06-9.34-.09-1.27,1.28-4.39,2.94-8,.54-1.2,1-2.23,1.13-2.61.49-1.64,3-1.66,3.09-1.66h0c3.87.13,15,10.57,16.26,11.76l.26.24-.14.32c-.94,2.25-2.79,6.68-3,7.28C77.57,238.34,75.89,239.88,72,239.88Zm-7.48-21.2c-.13,0-1.87.06-2.13.95-.14.44-.6,1.45-1.18,2.73-1.1,2.4-2.93,6.42-2.85,7.54.13,1.8,2,6.81,9.28,8.43C75.67,240.14,77,237,77,237c.24-.7,2.33-5.7,2.89-7C76.33,226.62,67.4,218.8,64.51,218.68Z" style="fill:#263238"></path><path d="M66.21,207.2s-.26,6.15-.91,8.24S64,220.79,64,220.79s2,6.8,8.36,9c3.79,1.31,5.1.91,5.1.91l1.69-3.53S72.22,206.94,66.21,207.2Z" style="fill:#fff"></path><path d="M76.82,231.28a14.7,14.7,0,0,1-4.63-1c-6.57-2.28-8.6-9.06-8.68-9.35l0-.12,0-.12c0-.13.66-3.31,1.32-5.4s.89-8,.89-8.11l0-.45.46,0h.13c6.17,0,12.58,18.24,13.3,20.33l.06.2-1.88,3.91-.21.06A2.59,2.59,0,0,1,76.82,231.28ZM64.5,220.77c.29.87,2.38,6.61,8,8.57a12.33,12.33,0,0,0,4.6.93l1.49-3.11c-1.89-5.48-7.42-18.75-11.91-19.43a46.68,46.68,0,0,1-.92,7.85C65.21,217.4,64.63,220.15,64.5,220.77Z" style="fill:#263238"></path><path d="M102.4,195.05s2.22,6.8,1.7,10.06-3.79,8.24-4.31,10.72a21.53,21.53,0,0,1-3.79,8c-1.57,1.83-8.76,6.79-10.85,7.71s-6.66-.13-7.57-1.7-5.36-7.06-6.41-10.72a22.27,22.27,0,0,1-1-4.7s-4.83-2.74-6.14-6.66c-1-3,0-7.06,2-7.45s4.31,3.27,4.31,3.27,10.19-1.18,16.07-1.44S102.4,195.05,102.4,195.05Z" style="fill:#fff"></path><path d="M83.13,232.35c-2.37,0-5.21-1-6-2.29-.22-.39-.7-1.06-1.3-1.91-1.73-2.44-4.35-6.14-5.15-8.92a30.51,30.51,0,0,1-1-4.54c-1-.62-4.94-3.21-6.14-6.8A8.69,8.69,0,0,1,64,201.3a2.88,2.88,0,0,1,1.85-1.51c2-.39,4,2.31,4.66,3.23,1.74-.2,10.54-1.18,15.8-1.41,5.67-.25,15.71-6.9,15.81-7a.5.5,0,0,1,.44-.06.51.51,0,0,1,.32.32c.09.28,2.25,6.95,1.71,10.29a26.48,26.48,0,0,1-2.51,6.44,23.72,23.72,0,0,0-1.8,4.3,21.69,21.69,0,0,1-3.9,8.19C94.8,226,87.61,231,85.35,232A5.54,5.54,0,0,1,83.13,232.35Zm-16.88-31.6-.2,0a2,2,0,0,0-1.18,1,7.69,7.69,0,0,0-.41,5.77c1.23,3.69,5.87,6.36,5.92,6.39a.49.49,0,0,1,.25.43,23.2,23.2,0,0,0,1,4.57c.74,2.61,3.3,6.22,5,8.61.61.87,1.1,1.55,1.35,2,.72,1.24,5,2.34,6.94,1.49,2.13-.93,9.18-5.84,10.67-7.58a20.78,20.78,0,0,0,3.68-7.75,23.63,23.63,0,0,1,1.88-4.53A25.64,25.64,0,0,0,103.6,205c.41-2.55-1-7.47-1.48-9.21-2.24,1.44-10.55,6.55-15.77,6.78-5.79.26-15.93,1.42-16,1.43a.48.48,0,0,1-.48-.22C69.3,203,67.56,200.75,66.25,200.75Z" style="fill:#263238"></path><path d="M94,217.9h0a.51.51,0,0,1-.5-.5,23.36,23.36,0,0,1,.53-3.89c.55-2.87,3.55-5.64,3.68-5.76a.5.5,0,0,1,.71,0,.51.51,0,0,1,0,.71s-2.89,2.66-3.38,5.21a24.35,24.35,0,0,0-.51,3.7A.51.51,0,0,1,94,217.9Z" style="fill:#263238"></path><path d="M91.67,223a3,3,0,0,1-.58-.05,8.74,8.74,0,0,1-3.36-1.39.5.5,0,0,1,.59-.81A7.81,7.81,0,0,0,91.24,222c1.17.18,1.38-.37,1.4-.43a.51.51,0,0,1,.62-.34.51.51,0,0,1,.35.6A1.84,1.84,0,0,1,91.67,223Z" style="fill:#263238"></path><path d="M87.77,226.13h0s-5.4-.36-6-6.6a.5.5,0,0,1,1-.09c.47,5.36,4.83,5.68,5,5.69a.5.5,0,0,1,.47.52A.51.51,0,0,1,87.77,226.13Z" style="fill:#263238"></path><path d="M93.25,207.83a.49.49,0,0,1-.32-.12,6.5,6.5,0,0,0-6.41-1.09.5.5,0,0,1-.38-.92A7.45,7.45,0,0,1,93.58,207a.49.49,0,0,1,0,.7A.48.48,0,0,1,93.25,207.83Z" style="fill:#263238"></path><path d="M101.22,211.23a.5.5,0,0,1-.45-.28,2.52,2.52,0,0,0-1.39-1.44,2,2,0,0,0-1.45.1.5.5,0,0,1-.47-.89,3.1,3.1,0,0,1,2.22-.17,3.5,3.5,0,0,1,2,2,.5.5,0,0,1-.24.66A.42.42,0,0,1,101.22,211.23Z" style="fill:#263238"></path><path d="M89.39,212.83c-.4,1-1.15,1.57-1.69,1.35s-.64-1.18-.25-2.14,1.15-1.58,1.69-1.36S89.78,211.86,89.39,212.83Z" style="fill:#263238"></path><path d="M97.44,215.57c-.4,1-1.15,1.57-1.69,1.36s-.65-1.19-.25-2.15,1.15-1.58,1.68-1.36S97.83,214.6,97.44,215.57Z" style="fill:#263238"></path><path d="M101.76,263.46s3.46-7.41,3.63-7.91,3.79-2.3,5.44-2.63a11.9,11.9,0,0,1,5.43.16c1.16.5,2.48,6.76,2.31,7.42S101.76,263.46,101.76,263.46Z" style="fill:#fff"></path><path d="M100.92,264.08l.39-.83c1.38-3,3.48-7.49,3.6-7.85.29-.86,4.4-2.69,5.82-3a12.11,12.11,0,0,1,5.73.19c1.54.66,2.75,7.38,2.6,8-.1.39-.25,1-17.23,3.34Zm12.52-10.9a13,13,0,0,0-2.52.23,16.88,16.88,0,0,0-5.09,2.37c-.11.37-2.29,5-3.23,7.06,5.74-.81,14.1-2.1,15.49-2.63,0-1.27-1.3-6.31-2-6.67A7.49,7.49,0,0,0,113.44,253.18Z" style="fill:#263238"></path><path d="M116.26,253.08s2.64.5,3.3,1.15,2.14,3.8,1.32,5.28a2,2,0,0,1-2.31,1Z" style="fill:#fff"></path><path d="M119.13,261.08a2.42,2.42,0,0,1-.72-.11l-.24-.08-2.63-8.45.82.15c.46.09,2.82.56,3.55,1.29s2.38,4.13,1.41,5.87A2.44,2.44,0,0,1,119.13,261.08Zm-.17-1a1.43,1.43,0,0,0,1.48-.8c.67-1.2-.65-4.1-1.23-4.68a6.5,6.5,0,0,0-2.21-.84Z" style="fill:#263238"></path><path d="M109.18,255.55s5.44,4.29,6.43,4.12a3.61,3.61,0,0,0,1.81-1.15s-5.44-8.24-7.42-8.08-4,2.81-4,2.81-2.81,6.59-3.3,7.08,6.76.5,6.76.5" style="fill:#fff"></path><path d="M109.51,261.33c-6.94,0-7.11-.41-7.24-.74l.13-.61c.3-.35,1.86-3.8,3.19-6.93l.06-.1c.08-.12,2.13-2.82,4.31-3s6.56,6.3,7.88,8.29l.2.31-.24.29a4.09,4.09,0,0,1-2.11,1.33c-1,.16-4.73-2.57-6.82-4.22l.62-.79c2.44,1.92,5.45,4,6.06,4a2.72,2.72,0,0,0,1.23-.72c-2.51-3.74-5.76-7.57-6.74-7.52-1.4.12-3,1.84-3.56,2.56-.72,1.69-2.22,5.18-3,6.6a59.6,59.6,0,0,0,6,.23Z" style="fill:#263238"></path><path d="M99.08,260.69,86.19,292.15a1,1,0,0,0,1.14,1.31l24-6.31a1,1,0,0,0,.63-.52l13.85-28.46a1,1,0,0,0-1-1.39l-25,3.31A1,1,0,0,0,99.08,260.69Z" style="fill:#263238"></path><path d="M87.08,294a1.46,1.46,0,0,1-1.1-.5,1.48,1.48,0,0,1-.26-1.53L98.61,260.5a1.47,1.47,0,0,1,1.17-.9l25-3.32a1.48,1.48,0,0,1,1.38.6,1.47,1.47,0,0,1,.13,1.51l-13.84,28.46a1.48,1.48,0,0,1-.95.78l-24.05,6.31A1.58,1.58,0,0,1,87.08,294ZM125,257.27h-.07l-25,3.31a.46.46,0,0,0-.37.29L86.65,292.34a.46.46,0,0,0,.08.49.46.46,0,0,0,.48.14l24.05-6.31a.44.44,0,0,0,.3-.25L125.41,258a.46.46,0,0,0,0-.48A.45.45,0,0,0,125,257.27Z" style="fill:#263238"></path><path d="M48.2,233.8s-16,5.27-16.32,6.43.17,63.94,1.82,64.77,47.13-13.19,47.13-13.19h10A19.59,19.59,0,0,0,98,290c1.48-.83,4.62-2.8,3.46-2.8s-.33-.17-2.14.49a25.46,25.46,0,0,1-4.62,1s6.27-3.13,7.09-4.12l2.47-3s3.3-3,2-3.29-4.28,1.15-4.28,1.15l-5.28.33s4.12-2.47,5.44-3.13,4.45-2.14,4.62-3-1.49-.66-3-.16-9.89,2-10.55,2.14-3.13-.16-4.94.82-6.92,8.08-7.58,8.74-30,1.48-30,1.48l.49-28.51" style="fill:#b5b5b5"></path><path d="M33.8,305.49a.71.71,0,0,1-.33-.05c-.47-.23-1.34-.67-1.92-32.7-.25-13.74-.37-31.88-.15-32.65.33-1.17,9.23-4.32,16.64-6.77l.32,1c-7.29,2.41-15.18,5.33-16,6.14-.51,3.84.37,60.66,1.64,64.15h0c2.67,0,29.16-7.84,46.63-13.23l.15,0h10a19.14,19.14,0,0,0,6.85-1.75,26,26,0,0,0,2.89-1.84l-.19.07c-.19.08-.49.2-1,.37a26.57,26.57,0,0,1-4.73,1l-2.83.33,2.55-1.28c2.39-1.19,6.38-3.33,6.93-4l2.47-3a9.62,9.62,0,0,0,2.15-2.5,9.26,9.26,0,0,0-3.85,1.13L102,280l-7.32.46,1.76-1.06c.16-.1,4.15-2.49,5.47-3.15l.38-.19c2.37-1.17,3.69-2,3.94-2.37a5,5,0,0,0-2.29.35c-1.07.36-5.4,1.17-8.27,1.71-1.15.21-2.13.4-2.32.45a5.58,5.58,0,0,1-1.06.07,8.37,8.37,0,0,0-3.76.7c-1.23.67-4.37,4.71-6,6.88-.8,1-1.23,1.58-1.42,1.77-.53.53-10.74,1.08-30.34,1.63l-.52,0,.51-29,1,0-.49,28c11.18-.32,27.67-.94,29.19-1.38.2-.23.7-.88,1.28-1.62,2.5-3.23,5.06-6.44,6.36-7.15a9.37,9.37,0,0,1,4.22-.82,4.3,4.3,0,0,0,.84-.05c.21-.05,1-.19,2.37-.45,2.67-.51,7.14-1.34,8.14-1.68.76-.25,2.61-.77,3.34-.12a.88.88,0,0,1,.28.86c-.17.84-1.72,1.75-4.51,3.13l-.37.19c-.73.36-2.35,1.3-3.63,2l3.11-.19c.59-.29,3.17-1.49,4.53-1.15a.87.87,0,0,1,.67.62c.23,1-1.42,2.63-2.43,3.54l-2.42,2.91a22.8,22.8,0,0,1-4.32,2.72,13.18,13.18,0,0,0,1.29-.38l.95-.36a1.64,1.64,0,0,1,.87-.18l.49,0c.55,0,.7.33.73.47s.25.94-4,3.27a19.93,19.93,0,0,1-7.33,1.87h-10C70.52,295.51,37.78,305.49,33.8,305.49Z" style="fill:#263238"></path><path d="M106.71,273.68c.16-.82-1.49-.66-3-.16s-9.89,2-10.55,2.14-3.13-.16-4.94.82-6.92,8.08-7.58,8.74c-.4.39-10.88.84-19.34,1.14a31.42,31.42,0,0,0-.28,5.12,18.89,18.89,0,0,0,1.22,5.94c9.9-2.94,18.56-5.61,18.56-5.61h10A19.59,19.59,0,0,0,98,290c1.48-.83,4.62-2.8,3.46-2.8s-.33-.17-2.14.49a25.46,25.46,0,0,1-4.62,1s6.27-3.13,7.09-4.12l2.47-3s3.3-3,2-3.29-4.28,1.15-4.28,1.15l-5.28.33s4.12-2.47,5.44-3.13S106.54,274.51,106.71,273.68Z" style="fill:#fff"></path><path d="M62,298l-.16-.44a19.18,19.18,0,0,1-1.25-6.09,32.33,32.33,0,0,1,.28-5.21l.06-.41.42,0c15.6-.55,18.55-.91,19.06-1.05.2-.24.71-.88,1.28-1.62,2.5-3.23,5.06-6.44,6.36-7.15a9.37,9.37,0,0,1,4.22-.82,4.3,4.3,0,0,0,.84-.05c.21-.05,1-.19,2.37-.45,2.67-.51,7.14-1.34,8.14-1.68.76-.25,2.61-.77,3.34-.12a.88.88,0,0,1,.28.86c-.17.84-1.72,1.75-4.51,3.13l-.37.19c-.73.36-2.35,1.3-3.63,2l3.11-.19c.59-.29,3.17-1.49,4.53-1.15a.87.87,0,0,1,.67.62c.23,1-1.42,2.63-2.43,3.54l-2.42,2.91a22.8,22.8,0,0,1-4.32,2.72,13.18,13.18,0,0,0,1.29-.38l.95-.36a1.64,1.64,0,0,1,.87-.18l.49,0c.55,0,.7.33.73.47s.25.94-4,3.27a19.93,19.93,0,0,1-7.33,1.87h-10c-.86.27-9.18,2.82-18.5,5.59Zm-.19-11.19a32.12,32.12,0,0,0-.22,4.63,17.77,17.77,0,0,0,1,5.33c9.6-2.85,18-5.44,18.1-5.47l.15,0h10a19.14,19.14,0,0,0,6.85-1.75,26,26,0,0,0,2.89-1.84l-.19.07c-.19.08-.49.2-1,.37a26.57,26.57,0,0,1-4.73,1l-2.83.33,2.55-1.28c2.39-1.19,6.38-3.33,6.93-4l2.47-3a9.62,9.62,0,0,0,2.15-2.5,9.26,9.26,0,0,0-3.85,1.13L102,280l-7.32.46,1.76-1.06c.16-.1,4.15-2.49,5.47-3.15l.38-.19c2.37-1.17,3.69-2,3.94-2.37a5,5,0,0,0-2.29.35c-1.07.36-5.4,1.17-8.27,1.71-1.15.21-2.13.4-2.32.45a5.58,5.58,0,0,1-1.06.07,8.37,8.37,0,0,0-3.76.7c-1.23.67-4.36,4.71-6,6.88-.8,1-1.23,1.58-1.42,1.77S80.42,286.18,61.77,286.84Zm44.45-13.26.49.1-.49-.11Z" style="fill:#263238"></path><path d="M93.81,285l-.25-1c.3-.08,7.44-2,8.27-2.15a15.29,15.29,0,0,0,2.2-.79l.41.91a16.44,16.44,0,0,1-2.42.86C101.23,283.07,93.89,285,93.81,285Z" style="fill:#263238"></path></g><g id="freepik--NFT--inject-6"><path d="M239.75,219.92H223.37L212,191.67v28.25H191.53V135.44h16.81l11.41,26.74V135.44h20Zm-15.71-1h14.71V136.44h-18v30.63l-13.07-30.63H192.53v82.48H211V186.5Z" style="fill:#263238"></path><path d="M195,216.42V138.94h11l17.22,40.37V138.94h13v77.48H225.73l-17.21-42.85v42.85Z" style="fill:#263238"></path><path d="M267.3,219.92H244.52V135.44H282.9v17.72H267.3V167.1h14.34v18H267.3Zm-21.78-1H266.3V184.1h14.34v-16H266.3V152.16h15.6V136.44H245.52Z" style="fill:#263238"></path><path d="M248,216.42V138.94h32.71v10.72H263.8V170.6h14.34v11H263.8v34.82Z" style="fill:#263238"></path><path d="M315.31,219.92H292.43V153.13H281.88V135.44h45.19v17.69H315.31Zm-21.88-1h20.88V152.13h11.76V136.44H282.88v15.69h10.55Z" style="fill:#263238"></path><path d="M295.93,216.42V150.71H284V138.94h39.59v11.77H311.81v65.71Z" style="fill:#263238"></path></g><g id="freepik--Pictures--inject-6"><rect x="224.95" y="247.77" width="38.6" height="45.44" style="fill:#263238"></rect><path d="M264.05,293.7h-39.6V247.27h39.6Zm-38.6-1h37.6V248.27h-37.6Z" style="fill:#263238"></path><path d="M261.87,291.72H226.64a.5.5,0,0,1-.5-.5V249.75a.5.5,0,0,1,.5-.5h35.23a.5.5,0,0,1,.5.5v41.47A.5.5,0,0,1,261.87,291.72Zm-34.73-1h34.23V250.25H227.14Z" style="fill:#263238"></path><polygon points="261.87 262.55 257.73 259.92 247.34 272.01 238.97 267.36 227.03 278.37 226.64 278.4 226.64 291.22 261.87 291.22 261.87 262.55" style="fill:#fff"></polygon><path d="M261.87,291.72H226.64a.5.5,0,0,1-.5-.5V278.4a.5.5,0,0,1,.46-.5l.22,0L238.63,267a.5.5,0,0,1,.58-.07l8,4.46,10.12-11.79a.49.49,0,0,1,.65-.09l4.14,2.63a.5.5,0,0,1,.23.42v28.67A.5.5,0,0,1,261.87,291.72Zm-34.73-1h34.23V262.83l-3.54-2.26-10.11,11.77a.5.5,0,0,1-.62.11l-8-4.48-11.68,10.76a.45.45,0,0,1-.23.13Z" style="fill:#263238"></path><circle cx="234.32" cy="258.37" r="4.03" style="fill:#fff"></circle><path d="M234.32,262.9a4.53,4.53,0,1,1,4.53-4.53A4.53,4.53,0,0,1,234.32,262.9Zm0-8.06a3.53,3.53,0,1,0,3.53,3.53A3.53,3.53,0,0,0,234.32,254.84Z" style="fill:#263238"></path><path d="M158.69,154.47H119a.5.5,0,0,1-.5-.5V107.18a.5.5,0,0,1,.5-.5h39.74a.5.5,0,0,1,.5.5V154A.5.5,0,0,1,158.69,154.47Zm-39.24-1h38.74V107.68H119.45Z" style="fill:#263238"></path><rect x="120.68" y="109.22" width="36.28" height="42.71" style="fill:#6F65E8"></rect><path d="M157.46,152.43H120.18V108.72h37.28Zm-36.28-1h35.28V109.72H121.18Z" style="fill:#263238"></path><polygon points="156.96 122.41 152.7 119.7 142 132.15 133.38 127.36 121.09 138.69 120.68 138.73 120.68 151.93 156.96 151.93 156.96 122.41" style="fill:#fff"></polygon><path d="M157,152.43H120.68a.5.5,0,0,1-.5-.5v-13.2a.5.5,0,0,1,.46-.5l.24,0L133.05,127a.51.51,0,0,1,.58-.07l8.26,4.59,10.43-12.14a.49.49,0,0,1,.65-.09l4.26,2.71a.5.5,0,0,1,.23.42v29.52A.5.5,0,0,1,157,152.43Zm-35.78-1h35.28V122.69l-3.66-2.34-10.42,12.13a.5.5,0,0,1-.62.11l-8.3-4.62-12,11.09a.47.47,0,0,1-.25.13Z" style="fill:#263238"></path><circle cx="128.6" cy="118.1" r="4.15" style="fill:#fff"></circle><path d="M128.59,122.75a4.65,4.65,0,1,1,4.66-4.65A4.65,4.65,0,0,1,128.59,122.75Zm0-8.3a3.65,3.65,0,1,0,3.66,3.65A3.66,3.66,0,0,0,128.59,114.45Z" style="fill:#263238"></path><rect x="269.88" y="247.77" width="55.67" height="32.46" style="fill:#fff"></rect><path d="M325.56,280.73H269.88a.51.51,0,0,1-.5-.5V247.77a.5.5,0,0,1,.5-.5h55.68a.5.5,0,0,1,.5.5v32.46A.51.51,0,0,1,325.56,280.73Zm-55.18-1h54.68V248.27H270.38Z" style="fill:#263238"></path><path d="M323.87,278.75h-52.3a.5.5,0,0,1-.5-.5v-28.5a.5.5,0,0,1,.5-.5h52.3a.5.5,0,0,1,.5.5v28.5A.5.5,0,0,1,323.87,278.75Zm-51.8-1h51.3v-27.5h-51.3Z" style="fill:#263238"></path><polygon points="323.87 261.32 317.19 257.44 303.54 268.29 293.46 262.86 271.57 278.25 323.87 278.25 323.87 261.32" style="fill:#6F65E8"></polygon><path d="M324.37,278.75H270l23.44-16.47,10.06,5.41,13.65-10.86,7.23,4.2Zm-51.22-1h50.22V261.61L317.23,258,303.6,268.89l-10.1-5.44Z" style="fill:#263238"></path><path d="M282.61,256.66a4,4,0,1,1-4-4A4,4,0,0,1,282.61,256.66Z" style="fill:#6F65E8"></path><path d="M278.58,261.19a4.53,4.53,0,1,1,4.53-4.53A4.53,4.53,0,0,1,278.58,261.19Zm0-8.06a3.53,3.53,0,1,0,3.53,3.53A3.54,3.54,0,0,0,278.58,253.13Z" style="fill:#263238"></path><rect x="372.63" y="170.61" width="83.48" height="48.68" style="fill:#fff"></rect><path d="M456.11,219.79H372.63a.5.5,0,0,1-.5-.5V170.61a.5.5,0,0,1,.5-.5h83.48a.5.5,0,0,1,.5.5v48.68A.5.5,0,0,1,456.11,219.79Zm-83-1h82.48V171.11H373.13Z" style="fill:#263238"></path><rect x="375.15" y="173.58" width="78.44" height="42.74" style="fill:#263238"></rect><path d="M454.09,216.82H374.65V173.08h79.44Zm-78.44-1h77.44V174.08H375.65Z" style="fill:#263238"></path><polygon points="453.59 190.94 443.56 185.12 423.1 201.39 407.99 193.25 375.15 216.32 453.59 216.32 453.59 190.94" style="fill:#6F65E8"></polygon><path d="M454.09,216.82H373.57L408,192.67l15.1,8.12,20.46-16.28,10.58,6.14Zm-77.36-1h76.36V191.23l-9.49-5.51L423.15,202,408,193.84Z" style="fill:#263238"></path><path d="M391.71,184a6,6,0,1,1-6-6A6,6,0,0,1,391.71,184Z" style="fill:#6F65E8"></path><path d="M385.67,190.5a6.55,6.55,0,1,1,6.54-6.55A6.55,6.55,0,0,1,385.67,190.5Zm0-12.09a5.55,5.55,0,1,0,5.54,5.54A5.55,5.55,0,0,0,385.67,178.41Z" style="fill:#263238"></path><rect x="316.79" y="286.02" width="55.67" height="32.46" style="fill:#fff"></rect><path d="M372.47,319H316.8a.5.5,0,0,1-.5-.5V286a.5.5,0,0,1,.5-.5h55.67a.5.5,0,0,1,.5.5v32.46A.51.51,0,0,1,372.47,319Zm-55.17-1H372V286.52H317.3Z" style="fill:#263238"></path><rect x="318.48" y="288" width="52.31" height="28.5" style="fill:#fff"></rect><path d="M370.78,317h-52.3a.5.5,0,0,1-.5-.5V288a.5.5,0,0,1,.5-.5h52.3a.5.5,0,0,1,.5.5v28.5A.5.5,0,0,1,370.78,317ZM319,316h51.3V288.5H319Z" style="fill:#263238"></path><polygon points="370.78 299.57 364.1 295.69 350.45 306.54 340.38 301.11 318.48 316.5 370.78 316.5 370.78 299.57" style="fill:#263238"></polygon><path d="M371.28,317H316.9l23.44-16.47,10.06,5.41,13.65-10.86,7.23,4.2Zm-51.22-1h50.22V299.86l-6.14-3.57-13.63,10.85-10.1-5.44Z" style="fill:#263238"></path><path d="M329.52,294.91a4,4,0,1,1-4-4A4,4,0,0,1,329.52,294.91Z" style="fill:#263238"></path><path d="M325.49,299.44a4.53,4.53,0,1,1,4.53-4.53A4.53,4.53,0,0,1,325.49,299.44Zm0-8.06a3.53,3.53,0,1,0,3.53,3.53A3.54,3.54,0,0,0,325.49,291.38Z" style="fill:#263238"></path><rect x="100.61" y="159.16" width="57.33" height="33.43" style="fill:#fff"></rect><path d="M157.94,193.09H100.61a.5.5,0,0,1-.5-.5V159.16a.5.5,0,0,1,.5-.5h57.33a.5.5,0,0,1,.5.5v33.43A.51.51,0,0,1,157.94,193.09Zm-56.83-1h56.33V159.66H101.11Z" style="fill:#263238"></path><rect x="102.34" y="161.2" width="53.86" height="29.35" style="fill:#fff"></rect><path d="M156.2,191.05H102.34a.5.5,0,0,1-.5-.5V161.2a.5.5,0,0,1,.5-.5H156.2a.5.5,0,0,1,.5.5v29.35A.5.5,0,0,1,156.2,191.05Zm-53.36-1H155.7V161.7H102.84Z" style="fill:#263238"></path><polygon points="156.2 173.12 149.31 169.12 135.27 180.29 124.89 174.71 102.34 190.55 156.2 190.55 156.2 173.12" style="fill:#fff"></polygon><path d="M156.2,191.05H102.34a.5.5,0,0,1-.29-.91L124.6,174.3a.51.51,0,0,1,.53,0l10.08,5.43,13.79-11a.5.5,0,0,1,.57,0l6.88,4a.48.48,0,0,1,.25.43v17.43A.5.5,0,0,1,156.2,191.05Zm-52.28-1H155.7V173.41l-6.34-3.69-13.78,11a.52.52,0,0,1-.55.05l-10.11-5.45Z" style="fill:#263238"></path><circle cx="109.56" cy="168.32" r="4.15" style="fill:#fff"></circle><path d="M109.56,173a4.65,4.65,0,1,1,4.65-4.65A4.65,4.65,0,0,1,109.56,173Zm0-8.3a3.65,3.65,0,1,0,3.65,3.65A3.66,3.66,0,0,0,109.56,164.67Z" style="fill:#263238"></path><rect x="358.31" y="99.95" width="48.25" height="64.95" style="fill:#fff"></rect><path d="M406.56,165.41H358.31a.5.5,0,0,1-.5-.5V100a.5.5,0,0,1,.5-.5h48.25a.5.5,0,0,1,.5.5v65A.5.5,0,0,1,406.56,165.41Zm-47.75-1h47.25v-64H358.81Z" style="fill:#263238"></path><path d="M402.62,160.92H362.26a.5.5,0,0,1-.5-.5v-56a.5.5,0,0,1,.5-.5h40.36a.51.51,0,0,1,.5.5v56A.5.5,0,0,1,402.62,160.92Zm-39.86-1h39.36v-55H362.76Z" style="fill:#263238"></path><polygon points="402.62 119.46 397.85 115.75 385.73 137.45 376.72 130.12 362.35 151.82 362.25 152.01 362.25 160.42 402.62 160.42 402.62 119.46" style="fill:#fff"></polygon><path d="M402.62,160.92H362.26a.5.5,0,0,1-.5-.5V152a.54.54,0,0,1,0-.22l.1-.2,14.4-21.75a.49.49,0,0,1,.34-.22.54.54,0,0,1,.39.1l8.56,7,11.82-21.18a.5.5,0,0,1,.75-.15l4.76,3.71a.47.47,0,0,1,.2.39v41A.5.5,0,0,1,402.62,160.92Zm-39.86-1h39.36V119.71L398,116.5l-11.83,21.19a.51.51,0,0,1-.34.25.49.49,0,0,1-.41-.1l-8.59-7-14.07,21.26Z" style="fill:#263238"></path><path d="M362.26,104.94a.52.52,0,0,1-.38-.17l-3.95-4.49a.49.49,0,0,1,.05-.7.51.51,0,0,1,.71,0l3.94,4.49a.51.51,0,0,1,0,.71A.54.54,0,0,1,362.26,104.94Z" style="fill:#263238"></path><path d="M402.62,104.94a.5.5,0,0,1-.33-.12.51.51,0,0,1-.05-.71l3.95-4.49a.5.5,0,0,1,.7,0,.49.49,0,0,1,.05.7L403,104.77A.5.5,0,0,1,402.62,104.94Z" style="fill:#263238"></path><path d="M406.56,165.41a.5.5,0,0,1-.37-.17l-3.95-4.49a.51.51,0,0,1,.05-.71.49.49,0,0,1,.7.05l3.95,4.49a.49.49,0,0,1-.05.7A.46.46,0,0,1,406.56,165.41Z" style="fill:#263238"></path><path d="M358.31,165.41a.48.48,0,0,1-.33-.13.49.49,0,0,1-.05-.7l3.95-4.49a.51.51,0,0,1,.71-.05.51.51,0,0,1,0,.71l-3.94,4.49A.52.52,0,0,1,358.31,165.41Z" style="fill:#263238"></path><path d="M377,116a5.92,5.92,0,1,1-5.92-5.91A5.92,5.92,0,0,1,377,116Z" style="fill:#fff"></path><path d="M371.08,122.45A6.42,6.42,0,1,1,377.5,116,6.42,6.42,0,0,1,371.08,122.45Zm0-11.83A5.42,5.42,0,1,0,376.5,116,5.41,5.41,0,0,0,371.08,110.62Z" style="fill:#263238"></path><rect x="63.18" y="55.23" width="47.68" height="64.18" style="fill:#fff"></rect><path d="M110.85,119.91H63.18a.5.5,0,0,1-.5-.5V55.23a.5.5,0,0,1,.5-.5h47.67a.5.5,0,0,1,.5.5v64.18A.5.5,0,0,1,110.85,119.91Zm-47.17-1h46.67V55.73H63.68Z" style="fill:#263238"></path><rect x="67.08" y="59.67" width="39.88" height="55.31" style="fill:#fff"></rect><path d="M107,115.48H67.08a.5.5,0,0,1-.5-.5V59.67a.5.5,0,0,1,.5-.5H107a.5.5,0,0,1,.5.5V115A.51.51,0,0,1,107,115.48Zm-39.38-1h38.88V60.17H67.58Z" style="fill:#263238"></path><polygon points="106.96 74.51 102.25 70.84 90.27 92.28 81.36 85.04 67.17 106.48 67.08 106.67 67.08 114.98 106.96 114.98 106.96 74.51" style="fill:#263238"></polygon><path d="M67.08,60.17A.52.52,0,0,1,66.7,60l-3.9-4.44a.5.5,0,0,1,.75-.66l3.9,4.44a.5.5,0,0,1,0,.7A.5.5,0,0,1,67.08,60.17Z" style="fill:#263238"></path><path d="M107,60.17a.46.46,0,0,1-.33-.13.49.49,0,0,1,0-.7l3.9-4.44a.5.5,0,0,1,.75.66L107.33,60A.51.51,0,0,1,107,60.17Z" style="fill:#263238"></path><path d="M110.85,119.91a.5.5,0,0,1-.37-.17l-3.9-4.43a.51.51,0,0,1,0-.71.49.49,0,0,1,.7.05l3.9,4.43a.51.51,0,0,1,0,.71A.5.5,0,0,1,110.85,119.91Z" style="fill:#263238"></path><path d="M63.18,119.91a.5.5,0,0,1-.33-.12.51.51,0,0,1-.05-.71l3.9-4.43a.51.51,0,0,1,.71-.05.51.51,0,0,1,0,.71l-3.9,4.43A.5.5,0,0,1,63.18,119.91Z" style="fill:#263238"></path><path d="M81.64,71.12a5.85,5.85,0,1,1-5.84-5.84A5.84,5.84,0,0,1,81.64,71.12Z" style="fill:#263238"></path><rect x="215.16" y="306.31" width="48.9" height="65.82" style="fill:#fff"></rect><path d="M264.05,372.63H215.16a.5.5,0,0,1-.5-.5V306.31a.5.5,0,0,1,.5-.5h48.89a.5.5,0,0,1,.5.5v65.82A.5.5,0,0,1,264.05,372.63Zm-48.39-1h47.89V306.81H215.66Z" style="fill:#263238"></path><rect x="219.15" y="310.86" width="40.9" height="56.72" style="fill:#fff"></rect><path d="M260.05,368.08h-40.9a.5.5,0,0,1-.5-.5V310.86a.5.5,0,0,1,.5-.5h40.9a.5.5,0,0,1,.5.5v56.72A.5.5,0,0,1,260.05,368.08Zm-40.4-1h39.9V311.36h-39.9Z" style="fill:#263238"></path><polygon points="260.05 326.08 255.22 322.32 242.94 344.31 233.81 336.88 219.25 358.87 219.15 359.07 219.15 367.58 260.05 367.58 260.05 326.08" style="fill:#6F65E8"></polygon><path d="M260.55,368.08h-41.9l0-9.22.09-.2,14.91-22.51,9.1,7.39,12.27-22,5.48,4.27Zm-40.9-1h39.9V326.32l-4.17-3.25-12.29,22-9.17-7.45-14.27,21.55Z" style="fill:#263238"></path><path d="M219.15,311.36a.5.5,0,0,1-.37-.17l-4-4.55a.49.49,0,0,1,.05-.7.48.48,0,0,1,.7,0l4,4.55a.51.51,0,0,1-.05.71A.5.5,0,0,1,219.15,311.36Z" style="fill:#263238"></path><path d="M260.05,311.36a.54.54,0,0,1-.33-.12.51.51,0,0,1,0-.71l4-4.55a.48.48,0,0,1,.7,0,.49.49,0,0,1,.05.7l-4,4.55A.52.52,0,0,1,260.05,311.36Z" style="fill:#263238"></path><path d="M264.05,372.63a.45.45,0,0,1-.37-.17l-4-4.54a.5.5,0,0,1,.75-.67l4,4.55a.51.51,0,0,1-.05.71A.5.5,0,0,1,264.05,372.63Z" style="fill:#263238"></path><path d="M215.16,372.63a.5.5,0,0,1-.33-.12.51.51,0,0,1-.05-.71l4-4.55a.5.5,0,0,1,.75.67l-4,4.54A.48.48,0,0,1,215.16,372.63Z" style="fill:#263238"></path><path d="M234.09,322.61a6,6,0,1,1-6-6A6,6,0,0,1,234.09,322.61Z" style="fill:#6F65E8"></path><path d="M228.1,329.1a6.5,6.5,0,1,1,6.49-6.49A6.5,6.5,0,0,1,228.1,329.1Zm0-12a5.5,5.5,0,1,0,5.49,5.5A5.51,5.51,0,0,0,228.1,317.11Z" style="fill:#263238"></path><rect x="410.37" y="46.26" width="44.65" height="60.1" style="fill:#fff"></rect><path d="M455,106.86H410.37a.5.5,0,0,1-.5-.5V46.26a.5.5,0,0,1,.5-.5H455a.5.5,0,0,1,.5.5v60.1A.5.5,0,0,1,455,106.86Zm-44.14-1h43.64V46.76H410.87Z" style="fill:#263238"></path><rect x="414.02" y="50.41" width="37.35" height="51.8" style="fill:#fff"></rect><path d="M451.36,102.71H414a.5.5,0,0,1-.5-.5V50.41a.5.5,0,0,1,.5-.5h37.34a.5.5,0,0,1,.5.5v51.8A.5.5,0,0,1,451.36,102.71Zm-36.84-1h36.34V50.91H414.52Z" style="fill:#263238"></path><polygon points="451.37 64.31 446.95 60.88 435.74 80.95 427.4 74.17 414.1 94.25 414.02 94.43 414.02 102.21 451.37 102.21 451.37 64.31" style="fill:#6F65E8"></polygon><path d="M451.86,102.71H413.52l0-8.49.09-.18,13.64-20.6,8.31,6.75,11.2-20.07,5.06,3.94Zm-37.34-1h36.34V64.55l-3.75-2.92L435.89,81.71l-8.38-6.8-13,19.62Z" style="fill:#263238"></path><path d="M414,50.91a.52.52,0,0,1-.38-.17L410,46.59a.51.51,0,0,1,.05-.71.49.49,0,0,1,.7,0l3.65,4.15a.51.51,0,0,1,0,.71A.54.54,0,0,1,414,50.91Z" style="fill:#263238"></path><path d="M451.36,50.91a.54.54,0,0,1-.33-.12.51.51,0,0,1,0-.71l3.65-4.15a.49.49,0,0,1,.7,0,.51.51,0,0,1,.05.71l-3.65,4.15A.52.52,0,0,1,451.36,50.91Z" style="fill:#263238"></path><path d="M455,106.86a.51.51,0,0,1-.37-.17L451,102.54a.51.51,0,0,1,0-.71.51.51,0,0,1,.71,0l3.65,4.15a.51.51,0,0,1-.05.71A.5.5,0,0,1,455,106.86Z" style="fill:#263238"></path><path d="M410.37,106.86a.5.5,0,0,1-.33-.12A.51.51,0,0,1,410,106l3.65-4.15a.51.51,0,0,1,.71,0,.51.51,0,0,1,0,.71l-3.65,4.15A.5.5,0,0,1,410.37,106.86Z" style="fill:#263238"></path><path d="M427.66,61.14a5.48,5.48,0,1,1-5.48-5.48A5.47,5.47,0,0,1,427.66,61.14Z" style="fill:#6F65E8"></path><path d="M422.18,67.11a6,6,0,1,1,6-6A6,6,0,0,1,422.18,67.11Zm0-11a5,5,0,1,0,5,5A5,5,0,0,0,422.18,56.16Z" style="fill:#263238"></path><path d="M217.67,293.7H179.08a.5.5,0,0,1-.5-.5V247.77a.5.5,0,0,1,.5-.5h38.59a.5.5,0,0,1,.5.5V293.2A.5.5,0,0,1,217.67,293.7Zm-38.09-1h37.59V248.27H179.58Z" style="fill:#263238"></path><rect x="180.76" y="249.75" width="35.23" height="41.47" style="fill:#6F65E8"></rect><path d="M216.49,291.72H180.26V249.25h36.23Zm-35.23-1h34.23V250.25H181.26Z" style="fill:#263238"></path><path d="M187.37,275.65V273.9a3.88,3.88,0,0,0,.74-.06,1,1,0,0,0,.47-.19.86.86,0,0,0,.24-.42,2.72,2.72,0,0,0,.08-.71v-9.45h2.49v9.56a5.06,5.06,0,0,1-.24,1.68,1.78,1.78,0,0,1-.85,1,3.7,3.7,0,0,1-1.72.33Z" style="fill:#263238"></path><path d="M193.24,275.33V263.07h3.89a3.43,3.43,0,0,1,1.8.42,2.55,2.55,0,0,1,1,1.2,4.76,4.76,0,0,1,.34,1.91,4,4,0,0,1-.45,2.06,2.44,2.44,0,0,1-1.22,1,4.62,4.62,0,0,1-1.77.31h-1.13v5.31Zm2.5-7.06h.88a1.64,1.64,0,0,0,.84-.18.89.89,0,0,0,.4-.55,3.75,3.75,0,0,0,.1-1,4.22,4.22,0,0,0-.08-.94,1,1,0,0,0-.37-.59,1.57,1.57,0,0,0-.91-.21h-.86Z" style="fill:#263238"></path><path d="M204.73,275.52a3.31,3.31,0,0,1-2-.53,2.84,2.84,0,0,1-1-1.48,7.46,7.46,0,0,1-.31-2.23v-4.1a7.22,7.22,0,0,1,.32-2.27,2.67,2.67,0,0,1,1.11-1.47,3.88,3.88,0,0,1,2.16-.52,4.2,4.2,0,0,1,2.08.44,2.5,2.5,0,0,1,1.1,1.24,5,5,0,0,1,.33,1.91v.71h-2.43v-.86a5.52,5.52,0,0,0-.06-.86,1.06,1.06,0,0,0-.28-.58,1,1,0,0,0-.71-.21.88.88,0,0,0-.72.26,1.18,1.18,0,0,0-.29.65,5.9,5.9,0,0,0-.06.86v5.43a4.31,4.31,0,0,0,.09.93,1.14,1.14,0,0,0,.34.63,1.22,1.22,0,0,0,1.44,0,1.25,1.25,0,0,0,.36-.66,3.9,3.9,0,0,0,.1-.95v-1.3h-1.2V269h3.45v6.29h-1.63l-.15-1.1a2.27,2.27,0,0,1-.73.92A2.07,2.07,0,0,1,204.73,275.52Z" style="fill:#263238"></path><rect x="119.32" y="55.23" width="39.74" height="46.79" style="fill:#fff"></rect><path d="M159.06,102.52H119.32a.5.5,0,0,1-.5-.5V55.23a.5.5,0,0,1,.5-.5h39.74a.5.5,0,0,1,.5.5V102A.5.5,0,0,1,159.06,102.52Zm-39.24-1h38.74V55.73H119.82Z" style="fill:#263238"></path><rect x="121.05" y="57.27" width="36.28" height="42.71" style="fill:#fff"></rect><path d="M157.33,100.48H121.05a.5.5,0,0,1-.5-.5V57.27a.5.5,0,0,1,.5-.5h36.28a.51.51,0,0,1,.5.5V100A.5.5,0,0,1,157.33,100.48Zm-35.78-1h35.28V57.77H121.55Z" style="fill:#263238"></path><path d="M127.85,84V82.14a5.51,5.51,0,0,0,.77,0,1.18,1.18,0,0,0,.48-.2.91.91,0,0,0,.25-.43,2.92,2.92,0,0,0,.08-.74V71H132v9.83a5.34,5.34,0,0,1-.25,1.74,1.89,1.89,0,0,1-.88,1,3.74,3.74,0,0,1-1.77.34Z" style="fill:#263238"></path><path d="M133.9,83.62V71h4a3.54,3.54,0,0,1,1.85.43,2.61,2.61,0,0,1,1.07,1.24,5,5,0,0,1,.35,2,4.09,4.09,0,0,1-.46,2.12,2.54,2.54,0,0,1-1.26,1.08,4.69,4.69,0,0,1-1.82.32h-1.17v5.47Zm2.57-7.28h.91a1.69,1.69,0,0,0,.86-.18.86.86,0,0,0,.41-.56,3.54,3.54,0,0,0,.11-1,5.18,5.18,0,0,0-.08-1,1.05,1.05,0,0,0-.38-.61,1.65,1.65,0,0,0-.94-.21h-.89Z" style="fill:#263238"></path><path d="M145.73,83.81a3.42,3.42,0,0,1-2-.54,3,3,0,0,1-1.06-1.52,7.3,7.3,0,0,1-.32-2.3V75.22a7.74,7.74,0,0,1,.32-2.34,2.82,2.82,0,0,1,1.15-1.51,4.1,4.1,0,0,1,2.22-.53,4.31,4.31,0,0,1,2.14.45,2.56,2.56,0,0,1,1.13,1.28,5.1,5.1,0,0,1,.35,2v.73h-2.51v-.89a5.7,5.7,0,0,0-.06-.88,1.1,1.1,0,0,0-.29-.6,1,1,0,0,0-.73-.22,1,1,0,0,0-.75.27,1.29,1.29,0,0,0-.29.67,6.19,6.19,0,0,0-.06.88v5.6a4.58,4.58,0,0,0,.09,1,1.24,1.24,0,0,0,.35.66,1.09,1.09,0,0,0,.74.23,1,1,0,0,0,.75-.25,1.31,1.31,0,0,0,.36-.68,4,4,0,0,0,.11-1V78.7H146.1V77.14h3.56v6.48H148l-.15-1.13a2.41,2.41,0,0,1-.75,1A2.17,2.17,0,0,1,145.73,83.81Z" style="fill:#263238"></path><rect x="270.9" y="285.54" width="38.6" height="45.44" style="fill:#fff"></rect><path d="M309.49,331.48H270.9a.5.5,0,0,1-.5-.5V285.54a.5.5,0,0,1,.5-.5h38.59a.5.5,0,0,1,.5.5V331A.5.5,0,0,1,309.49,331.48Zm-38.09-1H309V286H271.4Z" style="fill:#263238"></path><path d="M307.81,329.5H272.58a.5.5,0,0,1-.5-.5V287.52a.5.5,0,0,1,.5-.5h35.23a.5.5,0,0,1,.5.5V329A.5.5,0,0,1,307.81,329.5Zm-34.73-1h34.23V288H273.08Z" style="fill:#263238"></path><path d="M281.2,313.3a3.29,3.29,0,0,1-2-.53,2.83,2.83,0,0,1-1-1.48,7.51,7.51,0,0,1-.31-2.23V305a7.31,7.31,0,0,1,.32-2.27,2.69,2.69,0,0,1,1.11-1.46,3.88,3.88,0,0,1,2.16-.52,4.2,4.2,0,0,1,2.08.44,2.5,2.5,0,0,1,1.1,1.24,5,5,0,0,1,.33,1.91V305h-2.44v-.86a5.43,5.43,0,0,0-.06-.86,1,1,0,0,0-.28-.58,1,1,0,0,0-.7-.21.94.94,0,0,0-.73.25,1.32,1.32,0,0,0-.28.66,4.76,4.76,0,0,0-.07.86v5.43a4.35,4.35,0,0,0,.1.93,1.14,1.14,0,0,0,.34.63,1.22,1.22,0,0,0,1.44,0,1.32,1.32,0,0,0,.36-.66,4.47,4.47,0,0,0,.1-.95v-1.3h-1.2v-1.51H285v6.29h-1.63l-.16-1.1a2.25,2.25,0,0,1-.72.92A2.13,2.13,0,0,1,281.2,313.3Z" style="fill:#263238"></path><path d="M286.75,313.11V300.85h2.48v12.26Z" style="fill:#263238"></path><path d="M291.11,313.11V300.85h5.18v1.7h-2.68v3.31h2.27v1.74h-2.27v5.51Z" style="fill:#263238"></path><path d="M297.48,313.11V300.85h5.18v1.7H300v3.31h2.27v1.74H300v5.51Z" style="fill:#263238"></path><rect x="179.08" y="313.88" width="30.91" height="36.38" style="fill:#fff"></rect><path d="M210,350.76H179.08a.5.5,0,0,1-.5-.5V313.88a.5.5,0,0,1,.5-.5H210a.5.5,0,0,1,.5.5v36.38A.5.5,0,0,1,210,350.76Zm-30.41-1h29.91V314.38H179.58Z" style="fill:#263238"></path><rect x="180.43" y="315.46" width="28.21" height="33.21" style="fill:#fff"></rect><path d="M208.64,349.17H180.43a.5.5,0,0,1-.5-.5V315.46a.5.5,0,0,1,.5-.5h28.21a.51.51,0,0,1,.5.5v33.21A.5.5,0,0,1,208.64,349.17Zm-27.71-1h27.21V316H180.93Z" style="fill:#263238"></path><path d="M187.33,336.1a2.64,2.64,0,0,1-1.58-.42,2.27,2.27,0,0,1-.83-1.19,5.67,5.67,0,0,1-.25-1.78v-3.29a5.78,5.78,0,0,1,.26-1.82,2.11,2.11,0,0,1,.89-1.17,3.08,3.08,0,0,1,1.72-.42,3.29,3.29,0,0,1,1.67.36,2,2,0,0,1,.88,1,4,4,0,0,1,.27,1.53v.57h-2v-.69a4.75,4.75,0,0,0,0-.69.87.87,0,0,0-.23-.47.8.8,0,0,0-.56-.17.72.72,0,0,0-.58.21.92.92,0,0,0-.23.53,3.69,3.69,0,0,0,0,.68v4.36a3.23,3.23,0,0,0,.07.73,1,1,0,0,0,.27.51.86.86,0,0,0,.58.19.82.82,0,0,0,.58-.2,1,1,0,0,0,.28-.53,2.88,2.88,0,0,0,.08-.75v-1.05h-.95v-1.21h2.76v5h-1.31l-.12-.88a1.83,1.83,0,0,1-.58.74A1.73,1.73,0,0,1,187.33,336.1Z" style="fill:#263238"></path><path d="M191.77,336v-9.81h2V336Z" style="fill:#263238"></path><path d="M195.27,336v-9.81h4.14v1.35h-2.14v2.66h1.81v1.39h-1.81V336Z" style="fill:#263238"></path><path d="M200.37,336v-9.81h4.14v1.35h-2.14v2.66h1.82v1.39h-1.82V336Z" style="fill:#263238"></path><rect x="410.61" y="120.07" width="38.09" height="44.84" style="fill:#fff"></rect><path d="M448.7,165.41H410.61a.51.51,0,0,1-.5-.5V120.07a.5.5,0,0,1,.5-.5H448.7a.5.5,0,0,1,.5.5v44.84A.5.5,0,0,1,448.7,165.41Zm-37.59-1H448.2V120.57H411.11Z" style="fill:#263238"></path><rect x="412.28" y="122.03" width="34.77" height="40.93" style="fill:#6F65E8"></rect><path d="M447.54,163.45H411.78V121.53h35.76Zm-34.76-1h33.76V122.53H412.78Z" style="fill:#263238"></path><path d="M420.78,147.46a3.26,3.26,0,0,1-1.94-.52,2.81,2.81,0,0,1-1-1.46,7.34,7.34,0,0,1-.3-2.21v-4a7,7,0,0,1,.31-2.24,2.69,2.69,0,0,1,1.1-1.45,3.86,3.86,0,0,1,2.13-.51,4.11,4.11,0,0,1,2.05.43,2.49,2.49,0,0,1,1.08,1.23,4.83,4.83,0,0,1,.33,1.88v.7h-2.4v-.85a5.17,5.17,0,0,0-.06-.84,1,1,0,0,0-.28-.58,1,1,0,0,0-.69-.21.92.92,0,0,0-.72.26,1.18,1.18,0,0,0-.28.65,5.53,5.53,0,0,0-.06.84v5.36a4.19,4.19,0,0,0,.09.91,1.19,1.19,0,0,0,.33.63,1,1,0,0,0,.71.22,1,1,0,0,0,.72-.24,1.24,1.24,0,0,0,.35-.64,4.44,4.44,0,0,0,.1-.94v-1.28h-1.18v-1.5h3.4v6.22h-1.61l-.15-1.09a2.22,2.22,0,0,1-.72.91A2.07,2.07,0,0,1,420.78,147.46Z" style="fill:#263238"></path><path d="M426.26,147.28v-12.1h2.45v12.1Z" style="fill:#263238"></path><path d="M430.56,147.28v-12.1h5.11v1.67H433v3.27h2.24v1.72H433v5.44Z" style="fill:#263238"></path><path d="M436.85,147.28v-12.1H442v1.67h-2.65v3.27h2.24v1.72h-2.24v5.44Z" style="fill:#263238"></path></g></svg>
